<?xml version="1.0" encoding="UTF-8" standalone="no"?>
<!-- Created with Inkscape (http://www.inkscape.org/) -->

<svg
   width="512"
   height="512"
   viewBox="0 0 135.46666 135.46666"
   version="1.1"
   id="svg1"
   inkscape:version="1.3.2 (091e20e, 2023-11-25, custom)"
   sodipodi:docname="blastout-webicon.svg"
   inkscape:export-filename="blastout-primary-thumbnail.png"
   inkscape:export-xdpi="96"
   inkscape:export-ydpi="96"
   xmlns:inkscape="http://www.inkscape.org/namespaces/inkscape"
   xmlns:sodipodi="http://sodipodi.sourceforge.net/DTD/sodipodi-0.dtd"
   xmlns:xlink="http://www.w3.org/1999/xlink"
   xmlns="http://www.w3.org/2000/svg"
   xmlns:svg="http://www.w3.org/2000/svg">
  <sodipodi:namedview
     id="namedview1"
     pagecolor="#505050"
     bordercolor="#eeeeee"
     borderopacity="1"
     inkscape:showpageshadow="0"
     inkscape:pageopacity="0"
     inkscape:pagecheckerboard="0"
     inkscape:deskcolor="#505050"
     inkscape:document-units="px"
     showgrid="true"
     inkscape:zoom="1.0897757"
     inkscape:cx="211.51141"
     inkscape:cy="326.67272"
     inkscape:window-width="1920"
     inkscape:window-height="1108"
     inkscape:window-x="-9"
     inkscape:window-y="54"
     inkscape:window-maximized="1"
     inkscape:current-layer="g93">
    <inkscape:grid
       id="grid1"
       units="px"
       originx="0"
       originy="0"
       spacingx="0.52916665"
       spacingy="0.52916665"
       empcolor="#ffffff"
       empopacity="0.23921569"
       color="#ffffff"
       opacity="0.078431373"
       empspacing="8"
       dotted="false"
       gridanglex="30"
       gridanglez="30"
       visible="true" />
  </sodipodi:namedview>
  <defs
     id="defs1">
    <filter
       style="color-interpolation-filters:sRGB"
       inkscape:label="Channel Painting"
       id="filter95"
       x="-0.0019540075"
       y="0"
       width="1.001954"
       height="1">
      <feColorMatrix
         values="0"
         type="saturate"
         result="colormatrix1"
         id="feColorMatrix93" />
      <feColorMatrix
         values="1 0 0 0 0 0 1 0 0 0 0 0 1 0 0 -10 -10 -10 10 0 "
         in="SourceGraphic"
         result="colormatrix2"
         id="feColorMatrix94" />
      <feFlood
         flood-color="rgb(0,0,0)"
         flood-opacity="1"
         result="flood"
         id="feFlood94" />
      <feComposite
         in2="colormatrix2"
         operator="out"
         result="composite1"
         id="feComposite94" />
      <feMerge
         result="merge"
         id="feMerge95">
        <feMergeNode
           in="colormatrix1"
           id="feMergeNode94" />
        <feMergeNode
           in="composite1"
           id="feMergeNode95" />
      </feMerge>
      <feComposite
         in="merge"
         in2="SourceGraphic"
         operator="in"
         result="fbSourceGraphic"
         id="feComposite95" />
      <feColorMatrix
         result="fbSourceGraphicAlpha"
         in="fbSourceGraphic"
         values="0 0 0 -1 0 0 0 0 -1 0 0 0 0 -1 0 0 0 0 1 0"
         id="feColorMatrix95" />
      <feColorMatrix
         id="feColorMatrix96"
         values="0"
         type="saturate"
         result="colormatrix1"
         in="fbSourceGraphic" />
      <feColorMatrix
         id="feColorMatrix97"
         values="1 0 0 0 0 0 1 0 0 0 0 0 1 0 0 -10 -10 -10 10 0 "
         in="fbSourceGraphic"
         result="colormatrix2" />
      <feFlood
         id="feFlood97"
         flood-color="rgb(0,0,0)"
         flood-opacity="1"
         result="flood" />
      <feComposite
         id="feComposite97"
         in2="colormatrix2"
         operator="out"
         result="composite1" />
      <feMerge
         id="feMerge97"
         result="merge">
        <feMergeNode
           id="feMergeNode97"
           in="colormatrix1" />
        <feMergeNode
           id="feMergeNode98"
           in="composite1" />
      </feMerge>
      <feComposite
         id="feComposite98"
         in="merge"
         in2="fbSourceGraphic"
         operator="in"
         result="composite2" />
    </filter>
  </defs>
  <g
     inkscape:groupmode="layer"
     id="layer2"
     inkscape:label="MainLayer"
     inkscape:highlight-color="#e33e3e">
    <rect
       style="fill:#ff0000;fill-opacity:1;stroke:none;stroke-width:1.12889;stroke-linecap:round;stroke-linejoin:round;stroke-opacity:0.5;paint-order:markers stroke fill"
       id="rect1"
       width="135.46666"
       height="135.46666"
       x="0"
       y="0"
       inkscape:label="Background"
       sodipodi:insensitive="true" />
    <use
       x="0"
       y="0"
       xlink:href="#g93"
       id="use93"
       inkscape:label="ScenarioShadow"
       transform="translate(-1.4653524,2.2398874)"
       style="opacity:0.25;mix-blend-mode:darken;fill:none;fill-opacity:1;filter:url(#filter95)" />
    <g
       id="g93"
       inkscape:label="Scenario"
       transform="translate(-182.5625,-115.88751)">
      <path
         style="fill:none;stroke:#ffffff;stroke-width:2.11667;stroke-linecap:round;stroke-linejoin:round;stroke-dasharray:none;paint-order:markers stroke fill"
         d="m 218.3974,193.11553 -32.69947,0.26458"
         id="path4"
         inkscape:label="GroundSegment"
         sodipodi:nodetypes="cc" />
      <path
         style="fill:#ffffff;fill-opacity:1;stroke:#ffffff;stroke-width:2.11667;stroke-linecap:round;stroke-linejoin:round;stroke-dasharray:none;stroke-opacity:1;paint-order:markers stroke fill"
         d="m 289.08244,191.22709 25.31615,1e-5"
         id="path22"
         sodipodi:nodetypes="cc"
         inkscape:label="GroundSegment" />
      <g
         id="g4"
         inkscape:label="Logo"
         transform="matrix(1.7275782,0,0,1.7275782,222.93787,358.86947)">
        <g
           id="g3"
           inkscape:label="BLAST"
           transform="translate(-2.2759257e-6,-1.5875036)">
          <rect
             style="fill:none;stroke:#ffffff;stroke-width:0.529167;stroke-linecap:round;stroke-linejoin:round;paint-order:markers stroke fill"
             id="rect2"
             width="39.6875"
             height="13.758333"
             x="-2.1166656"
             y="-120.12083"
             inkscape:label="Frame" />
          <path
             id="path16"
             style="color:#000000;fill:#ffffff;stroke-linecap:round;stroke-linejoin:round;-inkscape-stroke:none;paint-order:markers stroke fill"
             d="m 0,-118.79895 a 0.26460981,0.26460981 0 0 0 -0.2635498,0.26562 v 10.58436 A 0.26460981,0.26460981 0 0 0 0,-107.68542 h 5.2911499 a 0.26460981,0.26460981 0 0 0 0.1875855,-0.078 l 1.0583333,-1.05678 a 0.26460981,0.26460981 0 0 0 0.078031,-0.18759 v -3.17551 a 0.26460981,0.26460981 0 0 0 -0.078031,-0.18759 l -0.8712647,-0.87126 0.8712647,-0.87127 a 0.26460981,0.26460981 0 0 0 0.078031,-0.18707 v -3.17396 a 0.26460981,0.26460981 0 0 0 -0.078031,-0.18759 l -1.0583333,-1.05885 a 0.26460981,0.26460981 0 0 0 -0.1875855,-0.078 z m 0,0.13333 a 0.13229166,0.13229166 0 0 1 0.13229167,0.13229 A 0.13229166,0.13229166 0 0 1 0,-118.40104 0.13229166,0.13229166 0 0 1 -0.13229167,-118.53333 0.13229166,0.13229166 0 0 1 0,-118.66562 Z m 5.2916667,0 a 0.13229166,0.13229166 0 0 1 0.1322916,0.13229 0.13229166,0.13229166 0 0 1 -0.1322916,0.13229 0.13229166,0.13229166 0 0 1 -0.1322917,-0.13229 0.13229166,0.13229166 0 0 1 0.1322917,-0.13229 z M 6.35,-117.60729 A 0.13229166,0.13229166 0 0 1 6.4822917,-117.475 0.13229166,0.13229166 0 0 1 6.35,-117.34271 0.13229166,0.13229166 0 0 1 6.2177083,-117.475 0.13229166,0.13229166 0 0 1 6.35,-117.60729 Z m -3.9692668,1.45521 H 3.96875 v 1.5875 H 2.3807332 Z m 0,4.23436 H 3.96875 v 1.58544 H 2.3807332 Z M 6.35,-109.14062 a 0.13229166,0.13229166 0 0 1 0.1322917,0.13229 A 0.13229166,0.13229166 0 0 1 6.35,-108.87604 0.13229166,0.13229166 0 0 1 6.2177083,-109.00833 0.13229166,0.13229166 0 0 1 6.35,-109.14062 Z M 0,-108.08229 A 0.13229166,0.13229166 0 0 1 0.13229167,-107.95 0.13229166,0.13229166 0 0 1 0,-107.81771 0.13229166,0.13229166 0 0 1 -0.13229167,-107.95 0.13229166,0.13229166 0 0 1 0,-108.08229 Z m 5.2916667,0 a 0.13229166,0.13229166 0 0 1 0.1322916,0.13229 0.13229166,0.13229166 0 0 1 -0.1322916,0.13229 0.13229166,0.13229166 0 0 1 -0.1322917,-0.13229 0.13229166,0.13229166 0 0 1 0.1322917,-0.13229 z"
             inkscape:label="B" />
          <path
             id="path17"
             style="color:#000000;fill:#ffffff;stroke-linecap:round;stroke-linejoin:round;-inkscape-stroke:none;paint-order:markers stroke fill"
             d="m 7.4083333,-118.79895 a 0.26460981,0.26460981 0 0 0 -0.2635498,0.26562 v 10.58436 a 0.26460981,0.26460981 0 0 0 0.2635498,0.26355 h 2.1171835 4.2323002 a 0.26460981,0.26460981 0 0 0 0.265616,-0.26355 v -2.1177 a 0.26460981,0.26460981 0 0 0 -0.265616,-0.26561 H 9.7890666 v -8.20105 a 0.26460981,0.26460981 0 0 0 -0.2635498,-0.26562 z m 0,0.13333 a 0.13229166,0.13229166 0 0 1 0.1322917,0.13229 0.13229166,0.13229166 0 0 1 -0.1322917,0.13229 0.13229166,0.13229166 0 0 1 -0.1322916,-0.13229 0.13229166,0.13229166 0 0 1 0.1322916,-0.13229 z m 2.1166667,0 a 0.13229166,0.13229166 0 0 1 0.1322917,0.13229 A 0.13229166,0.13229166 0 0 1 9.525,-118.40104 0.13229166,0.13229166 0 0 1 9.3927083,-118.53333 0.13229166,0.13229166 0 0 1 9.525,-118.66562 Z m 4.233333,8.46666 a 0.13229166,0.13229166 0 0 1 0.132292,0.13229 0.13229166,0.13229166 0 0 1 -0.132292,0.1323 0.13229166,0.13229166 0 0 1 -0.132291,-0.1323 0.13229166,0.13229166 0 0 1 0.132291,-0.13229 z m -6.3499997,2.11667 a 0.13229166,0.13229166 0 0 1 0.1322917,0.13229 0.13229166,0.13229166 0 0 1 -0.1322917,0.13229 0.13229166,0.13229166 0 0 1 -0.1322916,-0.13229 0.13229166,0.13229166 0 0 1 0.1322916,-0.13229 z m 6.3499997,0 a 0.13229166,0.13229166 0 0 1 0.132292,0.13229 0.13229166,0.13229166 0 0 1 -0.132292,0.13229 0.13229166,0.13229166 0 0 1 -0.132291,-0.13229 0.13229166,0.13229166 0 0 1 0.132291,-0.13229 z"
             inkscape:label="L" />
          <path
             id="path19"
             style="color:#000000;fill:#ffffff;stroke-linecap:round;stroke-linejoin:round;-inkscape-stroke:none;paint-order:markers stroke fill"
             d="m 16.93385,-118.79895 a 0.26460981,0.26460981 0 0 0 -0.187585,0.078 l -2.117184,2.11718 a 0.26460981,0.26460981 0 0 0 -0.07648,0.18759 v 8.46667 a 0.26460981,0.26460981 0 0 0 0.26355,0.26406 h 2.1177 a 0.26460981,0.26460981 0 0 0 0.26355,-0.26406 v -3.96875 h 1.5875 v 3.96875 a 0.26460981,0.26460981 0 0 0 0.266134,0.26406 h 2.115116 a 0.26460981,0.26460981 0 0 0 0.265617,-0.26406 v -8.46667 a 0.26460981,0.26460981 0 0 0 -0.07803,-0.18759 l -2.117183,-2.11718 a 0.26460981,0.26460981 0 0 0 -0.185518,-0.078 z m -5.17e-4,0.13333 a 0.13229166,0.13229166 0 0 1 0.132292,0.13229 0.13229166,0.13229166 0 0 1 -0.132292,0.13229 0.13229166,0.13229166 0 0 1 -0.132291,-0.13229 0.13229166,0.13229166 0 0 1 0.132291,-0.13229 z m 2.116667,0 a 0.13229166,0.13229166 0 0 1 0.132292,0.13229 0.13229166,0.13229166 0 0 1 -0.132292,0.13229 0.13229166,0.13229166 0 0 1 -0.132292,-0.13229 0.13229166,0.13229166 0 0 1 0.132292,-0.13229 z m -4.233333,2.11666 a 0.13229166,0.13229166 0 0 1 0.132291,0.13229 0.13229166,0.13229166 0 0 1 -0.132291,0.1323 0.13229166,0.13229166 0 0 1 -0.132292,-0.1323 0.13229166,0.13229166 0 0 1 0.132292,-0.13229 z m 6.35,0 a 0.13229166,0.13229166 0 0 1 0.132291,0.13229 0.13229166,0.13229166 0 0 1 -0.132291,0.1323 0.13229166,0.13229166 0 0 1 -0.132292,-0.1323 0.13229166,0.13229166 0 0 1 0.132292,-0.13229 z m -3.969267,0.39688 h 1.5875 v 1.5875 h -1.5875 z m -2.380733,8.06979 a 0.13229166,0.13229166 0 0 1 0.132291,0.13229 0.13229166,0.13229166 0 0 1 -0.132291,0.13229 0.13229166,0.13229166 0 0 1 -0.132292,-0.13229 0.13229166,0.13229166 0 0 1 0.132292,-0.13229 z m 2.101163,0 a 0.13229166,0.13229166 0 0 1 0.132292,0.13229 0.13229166,0.13229166 0 0 1 -0.132292,0.13229 0.13229166,0.13229166 0 0 1 -0.132291,-0.13229 0.13229166,0.13229166 0 0 1 0.132291,-0.13229 z m 2.13217,0 A 0.13229166,0.13229166 0 0 1 19.182292,-107.95 0.13229166,0.13229166 0 0 1 19.05,-107.81771 0.13229166,0.13229166 0 0 1 18.917708,-107.95 0.13229166,0.13229166 0 0 1 19.05,-108.08229 Z m 2.116667,0 a 0.13229166,0.13229166 0 0 1 0.132291,0.13229 0.13229166,0.13229166 0 0 1 -0.132291,0.13229 0.13229166,0.13229166 0 0 1 -0.132292,-0.13229 0.13229166,0.13229166 0 0 1 0.132292,-0.13229 z"
             inkscape:label="A" />
          <path
             id="path21"
             style="color:#000000;fill:#ffffff;stroke-linecap:round;stroke-linejoin:round;-inkscape-stroke:none;paint-order:markers stroke fill"
             d="m 23.284884,-118.79792 a 0.26460996,0.26460996 0 0 0 -0.186552,0.078 l -1.059884,1.05782 a 0.26460996,0.26460996 0 0 0 -0.07648,0.18707 l -0.0016,4.23282 a 0.26460996,0.26460996 0 0 0 0.07751,0.18655 l 1.057817,1.05937 a 0.26460996,0.26460996 0 0 0 0.186552,0.077 l 2.910933,0.001 5.17e-4,1.58595 -3.969267,-5.2e-4 a 0.26460996,0.26460996 0 0 0 -0.2651,0.26458 l 5.17e-4,2.1177 a 0.26460996,0.26460996 0 0 0 0.264066,0.26459 l 5.292184,5.1e-4 a 0.26460996,0.26460996 0 0 0 0.186035,-0.0775 l 1.057817,-1.05782 a 0.26460996,0.26460996 0 0 0 0.07855,-0.18707 l 0.0021,-4.23281 a 0.26460996,0.26460996 0 0 0 -0.07752,-0.18862 l -1.058333,-1.0573 a 0.26460996,0.26460996 0 0 0 -0.189136,-0.0791 l -2.9099,-5.1e-4 0.001,-1.58647 3.969783,5.2e-4 a 0.26460996,0.26460996 0 0 0 0.264584,-0.26459 v -2.11563 a 0.26460996,0.26460996 0 0 0 -0.2651,-0.26458 z m -0.0016,0.1323 a 0.13229166,0.13229166 0 0 1 0.132292,0.13229 0.13229166,0.13229166 0 0 1 -0.132292,0.13229 0.13229166,0.13229166 0 0 1 -0.132291,-0.13229 0.13229166,0.13229166 0 0 1 0.132291,-0.13229 z m 5.291667,0 a 0.13229166,0.13229166 0 0 1 0.132292,0.13229 0.13229166,0.13229166 0 0 1 -0.132292,0.13229 0.13229166,0.13229166 0 0 1 -0.132292,-0.13229 0.13229166,0.13229166 0 0 1 0.132292,-0.13229 z m -6.35,1.05833 a 0.13229166,0.13229166 0 0 1 0.132292,0.13229 0.13229166,0.13229166 0 0 1 -0.132292,0.13229 0.13229166,0.13229166 0 0 1 -0.132292,-0.13229 0.13229166,0.13229166 0 0 1 0.132292,-0.13229 z m 6.35,1.05833 a 0.13229166,0.13229166 0 0 1 0.132292,0.13229 0.13229166,0.13229166 0 0 1 -0.132292,0.1323 0.13229166,0.13229166 0 0 1 -0.132292,-0.1323 0.13229166,0.13229166 0 0 1 0.132292,-0.13229 z m -6.35,6.35 a 0.13229166,0.13229166 0 0 1 0.132292,0.13229 0.13229166,0.13229166 0 0 1 -0.132292,0.1323 0.13229166,0.13229166 0 0 1 -0.132292,-0.1323 0.13229166,0.13229166 0 0 1 0.132292,-0.13229 z m 6.35,1.05834 a 0.13229166,0.13229166 0 0 1 0.132292,0.13229 0.13229166,0.13229166 0 0 1 -0.132292,0.13229 0.13229166,0.13229166 0 0 1 -0.132292,-0.13229 0.13229166,0.13229166 0 0 1 0.132292,-0.13229 z m -6.35,1.05833 a 0.13229166,0.13229166 0 0 1 0.132292,0.13229 0.13229166,0.13229166 0 0 1 -0.132292,0.13229 0.13229166,0.13229166 0 0 1 -0.132292,-0.13229 0.13229166,0.13229166 0 0 1 0.132292,-0.13229 z m 5.291667,0 a 0.13229166,0.13229166 0 0 1 0.132291,0.13229 0.13229166,0.13229166 0 0 1 -0.132291,0.13229 0.13229166,0.13229166 0 0 1 -0.132292,-0.13229 0.13229166,0.13229166 0 0 1 0.132292,-0.13229 z"
             inkscape:label="S" />
          <path
             id="path23"
             style="color:#000000;fill:#ffffff;stroke-linecap:round;stroke-linejoin:round;-inkscape-stroke:none;paint-order:markers stroke fill"
             d="m 29.632817,-118.79895 a 0.26460981,0.26460981 0 0 0 -0.26355,0.26562 v 2.11718 a 0.26460981,0.26460981 0 0 0 0.26355,0.26407 h 1.853633 v 8.20311 a 0.26460981,0.26460981 0 0 0 0.26355,0.26355 h 2.117183 a 0.26460981,0.26460981 0 0 0 0.26355,-0.26355 v -8.20311 H 35.9823 a 0.26460981,0.26460981 0 0 0 0.265617,-0.26407 v -2.11718 a 0.26460981,0.26460981 0 0 0 -0.265617,-0.26562 z m 5.16e-4,0.13333 a 0.13229166,0.13229166 0 0 1 0.132292,0.13229 0.13229166,0.13229166 0 0 1 -0.132292,0.13229 0.13229166,0.13229166 0 0 1 -0.132291,-0.13229 0.13229166,0.13229166 0 0 1 0.132291,-0.13229 z m 6.35,0 a 0.13229166,0.13229166 0 0 1 0.132292,0.13229 0.13229166,0.13229166 0 0 1 -0.132292,0.13229 0.13229166,0.13229166 0 0 1 -0.132291,-0.13229 0.13229166,0.13229166 0 0 1 0.132291,-0.13229 z m -6.35,2.11666 a 0.13229166,0.13229166 0 0 1 0.132292,0.13229 0.13229166,0.13229166 0 0 1 -0.132292,0.1323 0.13229166,0.13229166 0 0 1 -0.132291,-0.1323 0.13229166,0.13229166 0 0 1 0.132291,-0.13229 z m 6.35,0 a 0.13229166,0.13229166 0 0 1 0.132292,0.13229 0.13229166,0.13229166 0 0 1 -0.132292,0.1323 0.13229166,0.13229166 0 0 1 -0.132291,-0.1323 0.13229166,0.13229166 0 0 1 0.132291,-0.13229 z M 31.75,-108.08229 A 0.13229166,0.13229166 0 0 1 31.882292,-107.95 0.13229166,0.13229166 0 0 1 31.75,-107.81771 0.13229166,0.13229166 0 0 1 31.617708,-107.95 0.13229166,0.13229166 0 0 1 31.75,-108.08229 Z m 2.116667,0 a 0.13229166,0.13229166 0 0 1 0.132291,0.13229 0.13229166,0.13229166 0 0 1 -0.132291,0.13229 0.13229166,0.13229166 0 0 1 -0.132292,-0.13229 0.13229166,0.13229166 0 0 1 0.132292,-0.13229 z"
             inkscape:label="T" />
        </g>
        <g
           id="g2"
           inkscape:label="OUT!">
          <g
             id="g35"
             inkscape:label="T"
             transform="translate(-1.0757477,0.07482815)">
            <path
               style="fill:#ffffff;fill-opacity:1;stroke:#ffffff;stroke-width:0.529167;stroke-linecap:round;stroke-linejoin:round;stroke-dasharray:none;stroke-opacity:1;paint-order:markers stroke fill"
               d="m 21.93043,-107.02433 -0.305433,2.09452 2.094514,0.30543 -1.221732,8.378044 2.094514,0.305433 1.22173,-8.378037 2.094515,0.30543 0.305434,-2.09452 z"
               id="path5-8" />
            <path
               style="fill:none;fill-opacity:1;stroke:#ffffff;stroke-width:0.529167;stroke-linecap:round;stroke-linejoin:round;stroke-dasharray:none;stroke-opacity:1;paint-order:markers stroke fill"
               d="m 21.624997,-104.92981 0.241003,0.88043 1.730419,0.2691 -1.09864,7.533945 0.278672,0.800717 1.274631,0.197262 0.541211,-0.692547 1.094575,-7.506067 1.444573,0.23216 0.777097,-0.7987"
               id="path8"
               sodipodi:nodetypes="cccccccccc" />
          </g>
          <g
             id="g37"
             inkscape:label="U"
             transform="translate(-1.7021499,-0.35930706)">
            <path
               style="fill:#ffffff;fill-opacity:1;stroke:#ffffff;stroke-width:0.529167;stroke-linecap:round;stroke-linejoin:round;stroke-dasharray:none;stroke-opacity:1;paint-order:markers stroke fill"
               d="m 13.70847,-105.24638 0.336977,9.519017 1.095112,1.02023 4.230684,-0.149764 1.020228,-1.095112 -0.336976,-9.519031 -2.115356,0.0745 0.299526,8.461354 -2.115339,0.0749 -0.299528,-8.461344 z"
               id="path7" />
            <path
               style="fill:none;fill-opacity:1;stroke:#ffffff;stroke-width:0.529167;stroke-linecap:round;stroke-linejoin:round;stroke-dasharray:none;stroke-opacity:1;paint-order:markers stroke fill"
               d="m 13.70847,-105.24638 0.600825,-0.74751 2.19263,-0.0986 -0.678127,0.77089 0.693301,-0.77089 0.360976,9.205511 1.36059,-0.04818 -0.299526,-8.461361 0.482321,-0.77944 2.318052,-0.0911 -0.685017,0.79598 0.685017,-0.79598 0.378118,9.514214 -0.726159,0.800803"
               id="path9"
               sodipodi:nodetypes="cccccccccccccc" />
          </g>
          <g
             id="g34"
             inkscape:label="O"
             transform="translate(-1.1307612,-0.53233106)">
            <path
               id="path6"
               style="fill:#ffffff;fill-opacity:1;stroke:#ffffff;stroke-width:0.529167;stroke-linecap:round;stroke-linejoin:round;stroke-dasharray:none;stroke-opacity:1;paint-order:markers stroke fill"
               d="m 5.8303332,-105.63929 -0.9292885,1.17328 0.9759192,8.410222 1.1732692,0.929289 4.2051169,-0.48796 0.929289,-1.173269 -0.975918,-8.410222 -1.173271,-0.9293 z m 0.7350122,1.74333 3.1538372,-0.36598 0.7665484,6.605917 -3.1538383,0.36597 z" />
            <path
               style="fill:none;fill-opacity:1;stroke:#ffffff;stroke-width:0.529167;stroke-linecap:round;stroke-linejoin:round;stroke-dasharray:none;stroke-opacity:1;paint-order:markers stroke fill"
               d="m 6.6698521,-102.99535 3.1551207,-0.35492"
               id="path11" />
            <path
               style="fill:none;fill-opacity:1;stroke:#ffffff;stroke-width:0.529167;stroke-linecap:round;stroke-linejoin:round;stroke-dasharray:none;stroke-opacity:1;paint-order:markers stroke fill"
               d="m 5.8769639,-96.055788 1.3095626,1.763455 4.1975725,-0.483745 0.80054,-2.01165"
               id="path12"
               sodipodi:nodetypes="cccc" />
          </g>
          <g
             id="g36"
             inkscape:label="!"
             transform="translate(-1.0757477,0.07482815)">
            <rect
               style="fill:#ffffff;fill-opacity:1;stroke:#ffffff;stroke-width:0.529167;stroke-linecap:round;stroke-linejoin:round;stroke-dasharray:none;stroke-opacity:1;paint-order:markers stroke fill"
               id="rect7"
               width="2.1166666"
               height="2.1166666"
               x="22.293568"
               y="-100.2463"
               transform="rotate(4.4136161)" />
            <rect
               style="fill:#ffffff;fill-opacity:1;stroke:#ffffff;stroke-width:0.529167;stroke-linecap:round;stroke-linejoin:round;stroke-dasharray:none;stroke-opacity:1;paint-order:markers stroke fill"
               id="rect8"
               width="2.1166666"
               height="7.4083333"
               x="36.820389"
               y="-104.22526"
               transform="rotate(-3.960923)" />
            <path
               style="fill:none;fill-opacity:1;stroke:#ffffff;stroke-width:0.529167;stroke-linecap:round;stroke-linejoin:round;stroke-dasharray:none;stroke-opacity:1;paint-order:markers stroke fill"
               d="m 29.942007,-98.233395 -0.71679,0.85805 -0.172255,1.956537 0.726155,-0.704193 -0.726155,0.704193 2.144901,0.03128 0.691642,-0.572587"
               id="path13"
               sodipodi:nodetypes="ccccccc" />
            <path
               style="fill:none;fill-opacity:1;stroke:#ffffff;stroke-width:0.529167;stroke-linecap:round;stroke-linejoin:round;stroke-dasharray:none;stroke-opacity:1;paint-order:markers stroke fill"
               d="m 29.532968,-106.51971 -0.584745,1.29121 0.464375,6.784281 0.630642,-0.703949 -0.624203,0.706148 1.778591,-0.134248 0.951628,-0.670226"
               id="path14"
               sodipodi:nodetypes="ccccccc" />
          </g>
        </g>
        <path
           style="opacity:1;fill:#ffffff;stroke:#ffffff;stroke-width:3.175;stroke-linecap:round;stroke-linejoin:round;stroke-dasharray:none;stroke-opacity:1;paint-order:markers stroke fill"
           d="m 205.39775,205.33706 5.82689,14.02094 25.49263,-5.03783 -15.59906,-2.30648 z"
           id="path34"
           sodipodi:nodetypes="ccccc"
           transform="matrix(0.33495145,0,0,0.33495145,-66.117574,-163.78222)"
           inkscape:label="ExplosionLighting" />
        <path
           style="opacity:1;fill:#ffffff;stroke:#ffffff;stroke-width:3.175;stroke-linecap:round;stroke-linejoin:round;stroke-dasharray:none;stroke-opacity:1;paint-order:markers stroke fill"
           d="m 251.46657,214.38087 23.48963,7.04082 15.84187,-14.26373 -14.08164,5.40201 z"
           id="path36"
           sodipodi:nodetypes="ccccc"
           transform="matrix(0.33495145,0,0,0.33495145,-66.117574,-163.78222)"
           inkscape:label="ExplosionLighting" />
        <path
           id="path29"
           style="fill:none;fill-opacity:1;stroke:#ffffff;stroke-width:0.529167;stroke-linecap:round;stroke-linejoin:round;stroke-dasharray:none;stroke-opacity:1;paint-order:markers stroke fill"
           d="m 3.175,-107.95 c -2.1175542,0.84703 -3.66173888,2.37418 -3.815271,2.69338 l -12.664617,-0.479 11.1882213,3.60645 c -0.3023471,0.99284 0.5117294,3.239947 3.06234541,5.342313 -1.01861125,1.310948 -11.04981471,11.751212 -10.83760321,11.751212 0.1888524,0 10.78193045,-9.174413 12.5842666,-10.517179 2.4587044,1.493324 5.9667356,2.747461 10.7993409,3.167765 l 2.68247,12.732811 1.517706,-12.624807 c 5.486079,-0.213111 10.971433,-1.226296 13.740848,-2.6479 l 9.313126,5.49579 -6.196521,-7.732863 c 1.772929,-1.83562 2.27331,-3.931192 1.825729,-5.829622 l 8.309669,-2.33736 -9.062078,0.5168 C 34.802117,-106.14352 33.467336,-107.26306 31.75,-107.95"
           sodipodi:nodetypes="cccccsccccccccccc"
           inkscape:label="ExplosionBase" />
        <path
           id="path37"
           style="opacity:1;fill:#ffffff;fill-opacity:1;stroke:none;stroke-width:3.175;stroke-linecap:round;stroke-linejoin:round;stroke-dasharray:none;stroke-opacity:1;paint-order:markers stroke fill"
           d="m 164.87779,161.77358 a 1.0583333,1.0583333 0 0 0 -1.05834,1.05834 1.0583333,1.0583333 0 0 0 1.05834,1.05833 1.0583333,1.0583333 0 0 0 1.05833,-1.05833 1.0583333,1.0583333 0 0 0 -1.05833,-1.05834 z m 156.06178,5.97225 a 1.5875,1.5875 0 0 0 -1.5875,1.5875 1.5875,1.5875 0 0 0 1.5875,1.5875 1.5875,1.5875 0 0 0 1.5875,-1.5875 1.5875,1.5875 0 0 0 -1.5875,-1.5875 z m -140.55834,20.23545 a 2.1166666,2.1166666 0 0 0 -2.11667,2.11667 2.1166666,2.1166666 0 0 0 2.11667,2.11667 2.1166666,2.1166666 0 0 0 2.11667,-2.11667 2.1166666,2.1166666 0 0 0 -2.11667,-2.11667 z m 133.15001,16.80621 a 2.1166666,2.1166666 0 0 0 -2.11667,2.11667 2.1166666,2.1166666 0 0 0 2.11667,2.11667 2.1166666,2.1166666 0 0 0 2.11666,-2.11667 2.1166666,2.1166666 0 0 0 -2.11666,-2.11667 z m -20.37292,9.525 a 2.1166666,2.1166666 0 0 0 -2.11666,2.11667 2.1166666,2.1166666 0 0 0 2.11666,2.11667 2.1166666,2.1166666 0 0 0 2.11667,-2.11667 2.1166666,2.1166666 0 0 0 -2.11667,-2.11667 z m -91.69621,4.43229 a 2.1166666,2.1166666 0 0 0 -2.11666,2.11667 2.1166666,2.1166666 0 0 0 2.11666,2.11666 2.1166666,2.1166666 0 0 0 2.11667,-2.11666 2.1166666,2.1166666 0 0 0 -2.11667,-2.11667 z m 32.16496,1.12396 a 2.1166666,2.1166666 0 0 0 -2.11666,2.11667 2.1166666,2.1166666 0 0 0 2.11666,2.11667 2.1166666,2.1166666 0 0 0 2.11667,-2.11667 2.1166666,2.1166666 0 0 0 -2.11667,-2.11667 z m -18.50688,8.90282 a 1.0583333,1.0583333 0 0 0 -1.05833,1.05833 1.0583333,1.0583333 0 0 0 1.05833,1.05833 1.0583333,1.0583333 0 0 0 1.05834,-1.05833 1.0583333,1.0583333 0 0 0 -1.05834,-1.05833 z m 41.26105,16.49718 a 1.0583333,1.0583333 0 0 0 -1.05833,1.05833 1.0583333,1.0583333 0 0 0 1.05833,1.05834 1.0583333,1.0583333 0 0 0 1.05833,-1.05834 1.0583333,1.0583333 0 0 0 -1.05833,-1.05833 z"
           inkscape:label="Debris"
           transform="matrix(0.33495145,0,0,0.33495145,-66.117574,-163.78222)" />
      </g>
      <path
         id="rect5"
         style="fill:#ffffff;stroke:none;stroke-width:0.758299;stroke-linecap:round;stroke-linejoin:round;stroke-dasharray:none;stroke-opacity:1;paint-order:markers stroke fill"
         d="m 318.72363,207.45691 c -0.8067,-0.003 -1.58724,0.4259 -2.00257,1.18632 l -9.6322,17.63598 c -0.6041,1.10607 -0.20003,2.48278 0.90603,3.08688 l 5.98956,3.27145 c 1.10607,0.6041 2.48296,0.19986 3.08707,-0.90621 l 9.63219,-17.6358 c 0.60411,-1.10606 0.19985,-2.48296 -0.90622,-3.08706 l -5.98954,-3.27127 c -0.34566,-0.18878 -0.71765,-0.27908 -1.08432,-0.28029 z m -23.00757,5.39862 c -0.17622,-8.4e-4 -0.3552,0.0155 -0.53466,0.0512 l -9.48279,1.88649 c -1.43564,0.28561 -2.37056,1.68494 -2.08495,3.12058 l 1.88649,9.48297 c 0.28561,1.43564 1.68493,2.37056 3.12058,2.08495 l 9.48297,-1.88649 c 1.43564,-0.28561 2.37056,-1.68512 2.08495,-3.12075 l -1.88649,-9.4828 c -0.24991,-1.25619 -1.35257,-2.12898 -2.5861,-2.13623 z m -1.79929,2.271 c 0.95082,-0.0249 1.82321,0.5163 1.99961,1.40293 0.20159,1.01327 -0.60944,1.95762 -1.70728,2.17603 -1.09785,0.2184 -2.20939,-0.34336 -2.41097,-1.35664 -0.20156,-1.01329 0.61018,-1.95781 1.70802,-2.17622 0.13723,-0.0273 0.27479,-0.0425 0.41062,-0.046 z m -5.7698,0.16291 c 0.50742,-0.0243 0.9954,0.21344 1.37479,0.58669 0.4336,0.42658 0.75439,1.03714 0.89566,1.74727 0.14126,0.71012 0.0789,1.3977 -0.15847,1.95775 -0.23731,0.56005 -0.67341,1.01068 -1.2576,1.1269 -0.5842,0.1162 -1.15891,-0.13343 -1.5925,-0.56002 -0.43359,-0.42658 -0.75439,-1.03771 -0.89567,-1.74783 -0.14128,-0.71011 -0.0787,-1.39697 0.15866,-1.95702 0.23731,-0.56004 0.67267,-1.01067 1.25686,-1.12689 0.073,-0.0144 0.1458,-0.0233 0.21827,-0.0268 z m -21.24993,0.11293 c -0.50926,-0.005 -1.02373,0.16051 -1.45272,0.5069 l -5.30994,4.28727 c -0.98055,0.79172 -1.13256,2.21851 -0.34083,3.19906 l 12.62393,15.63471 c 0.79172,0.98056 2.21851,1.13256 3.19907,0.34083 l 5.30993,-4.28727 c 0.98056,-0.79174 1.13256,-2.21851 0.34083,-3.19907 l -12.62392,-15.63471 c -0.44536,-0.55156 -1.09158,-0.84097 -1.74635,-0.84772 z m 27.03788,0.48135 c -0.0912,0.003 -0.18497,0.0137 -0.28066,0.0328 -0.76562,0.15229 -1.21712,0.75723 -1.11227,1.28425 0.10483,0.52701 0.75339,0.91301 1.519,0.76071 0.7656,-0.15234 1.21637,-0.75688 1.11153,-1.28389 -0.0917,-0.46114 -0.59929,-0.81473 -1.2376,-0.79384 z m -5.74871,0.16292 c -0.037,0.002 -0.0735,0.007 -0.10959,0.0135 -0.28864,0.0574 -0.53949,0.28379 -0.70683,0.6787 -0.16733,0.39492 -0.22757,0.93999 -0.11349,1.51345 0.1141,0.57346 0.37851,1.05418 0.68425,1.35497 0.30574,0.3008 0.62424,0.41455 0.91288,0.35712 0.28865,-0.0574 0.54005,-0.28451 0.70739,-0.67943 0.16734,-0.39491 0.22757,-0.94017 0.11348,-1.51363 -0.11409,-0.57347 -0.3785,-1.05418 -0.68424,-1.35498 -0.26753,-0.2632 -0.54521,-0.38246 -0.80384,-0.36971 z m 7.28104,3.59043 c 0.16443,-0.005 0.32704,0.0178 0.48782,0.0742 1.54466,0.54182 2.70605,3.86943 2.21158,5.4299 -0.69497,2.19323 -3.4165,-0.6192 -5.20237,-0.29528 -1.78588,0.32391 -3.89655,3.96702 -5.19609,2.29267 -0.97401,-1.25493 -1.14555,-4.6239 -0.17995,-5.76277 0.2225,-0.26242 0.48192,-0.39808 0.76645,-0.4532 1.01618,-0.19687 2.35274,0.63315 3.47195,0.38304 1.25351,-0.28012 2.48952,-1.6362 3.64061,-1.6686 z m 3.42474,4.90431 a 0.37914948,0.37914948 0 0 1 0.0989,0.004 0.37914948,0.37914948 0 0 1 0.30658,0.44061 c -0.12757,0.70991 -0.34107,1.21084 -0.71998,1.53734 -0.3789,0.32649 -0.85756,0.42789 -1.40236,0.48152 a 0.37914948,0.37914948 0 0 1 -0.41433,-0.34046 0.37914948,0.37914948 0 0 1 0.33972,-0.41432 c 0.49207,-0.0484 0.78675,-0.13321 0.98175,-0.30102 0.19497,-0.168 0.3561,-0.47007 0.46874,-1.0969 a 0.37914948,0.37914948 0 0 1 0.34102,-0.31121 z m -11.98243,2.38375 a 0.37914948,0.37914948 0 0 1 0.43412,0.15699 c 0.34398,0.53599 0.60848,0.75343 0.8529,0.83402 0.24443,0.0806 0.54896,0.0459 1.02212,-0.0977 a 0.37914948,0.37914948 0 0 1 0.47282,0.2527 0.37914948,0.37914948 0 0 1 -0.2527,0.47337 c -0.52386,0.15898 -1.00474,0.24846 -1.47976,0.0918 -0.47501,-0.15661 -0.86414,-0.53783 -1.25371,-1.14485 a 0.37914948,0.37914948 0 0 1 0.1146,-0.52429 0.37914948,0.37914948 0 0 1 0.0896,-0.042 z m 16.72697,1.1306 c -0.15132,-0.004 -0.30553,0.006 -0.46079,0.0326 l -17.93552,3.08651 c -1.24203,0.21374 -2.06986,1.38572 -1.85612,2.62775 l 3.40808,19.80387 c 0.21374,1.24203 1.38572,2.06986 2.62775,1.85612 l 17.93553,-3.08651 c 1.24203,-0.21374 2.06986,-1.38571 1.85611,-2.62775 l -3.40807,-19.80386 c -0.18703,-1.08678 -1.10765,-1.85647 -2.16697,-1.88871 z m 5.59708,25.48314 c -0.29555,8.4e-4 -0.5963,0.0601 -0.88622,0.18348 l -6.27965,2.67199 c -1.15967,0.49346 -1.69608,1.82447 -1.20262,2.98414 l 7.86808,18.49054 c 0.49346,1.15967 1.82428,1.69588 2.98395,1.20242 l 6.27983,-2.67218 c 1.15968,-0.49345 1.69589,-1.82428 1.20243,-2.98395 l -7.86789,-18.49053 c -0.37009,-0.86976 -1.21123,-1.38887 -2.09791,-1.3859 z m -20.02973,3.39123 c -1.15563,0.0171 -2.12688,0.9026 -2.22824,2.07977 l -1.72376,20.02084 c -0.1081,1.25564 0.81561,2.35358 2.07126,2.46169 l 6.7995,0.58538 c 1.25564,0.10811 2.35358,-0.81579 2.46169,-2.07143 l 1.72375,-20.02084 c 0.10811,-1.25565 -0.8156,-2.3534 -2.07124,-2.4615 l -6.7995,-0.58557 c -0.0785,-0.007 -0.15641,-0.01 -0.23346,-0.008 z"
         inkscape:label="Character0" />
      <path
         id="path101"
         style="color:#000000;-inkscape-font-specification:'Press Start 2P';fill:#ffffff;stroke-width:0.277692;stroke-linecap:round;stroke-linejoin:round;-inkscape-stroke:none;paint-order:markers stroke fill"
         d="m 273.05,204.0841 v 1.76335 h -1.76335 v 1.76335 h -1.76334 v 8.81675 H 273.05 v -3.5267 h 5.29005 v 3.5267 h 3.5267 v -8.81675 h -1.76335 v -1.76335 h -1.76335 v -1.76335 z m 1.76335,1.76335 h 1.76335 v 1.76335 h 1.76335 v 3.5267 H 273.05 v -3.5267 h 1.76335 z m -16.75509,1.93921 v 0.88168 h -0.88167 v 0.88167 h -0.88168 v 4.40838 h 1.76335 v -1.76335 h 2.64503 v 1.76335 l 1.75958,4.5e-4 0.004,-4.40883 h -0.88168 v -0.88167 h -0.88167 v -0.88168 z m 0.88168,0.88168 h 0.88167 v 0.88167 h 0.88168 v 1.76335 h -2.64503 v -1.76335 h 0.88168 z m 6.89842,-3.07619 v 0.48978 h -0.48977 v 0.48991 h -0.48977 v 2.449 h 0.97954 v -0.97954 h 1.46946 v 0.97954 h 0.97968 v -2.449 h -0.48977 v -0.48991 h -0.48991 v -0.48978 z m 0.48992,0.48978 h 0.48977 v 0.48991 h 0.48977 v 0.97954 h -1.46946 v -0.97954 h 0.48992 z"
         sodipodi:nodetypes="cccccccccccccccccccccccccccccccccccccccccccccccccccccccccccccccccccccccccccccc"
         transform="translate(1.0468754e-6)"
         inkscape:label="ATrail" />
      <path
         id="path3"
         style="color:#000000;fill:#ffffff;stroke-linecap:round;stroke-linejoin:round;-inkscape-stroke:none"
         d="M 100.61142 85.736365 A 0.79374999 0.79374999 0 0 0 100.4042 85.738432 A 0.79374999 0.79374999 0 0 0 99.88072 86.049007 A 0.79374999 0.79374999 0 0 0 100.04092 87.16005 C 103.73482 89.931274 105.2132 92.665174 107.34383 95.578141 A 0.79374999 0.79374999 0 0 0 108.45332 95.750223 A 0.79374999 0.79374999 0 0 0 108.62489 94.64073 C 106.56989 91.831167 104.92623 88.842184 100.99228 85.890877 A 0.79374999 0.79374999 0 0 0 100.61142 85.736365 z M 112.58227 85.903279 A 0.79374999 0.79374999 0 0 0 111.87327 86.427795 A 0.79374999 0.79374999 0 0 0 112.35179 87.443237 C 116.2935 88.859075 122.96111 93.740641 127.12867 97.259692 A 0.79374999 0.79374999 0 0 0 128.24798 97.166157 A 0.79374999 0.79374999 0 0 0 128.15445 96.046846 C 123.90988 92.462768 117.35914 87.55502 112.88871 85.949271 A 0.79374999 0.79374999 0 0 0 112.58227 85.903279 z M 95.555403 102.14777 A 0.79374999 0.79374999 0 0 0 95.312524 102.19944 A 0.79374999 0.79374999 0 0 0 94.857254 103.2247 C 96.116236 106.50242 97.208847 109.70921 97.876708 112.69751 A 0.79374999 0.79374999 0 0 0 98.824454 113.29902 A 0.79374999 0.79374999 0 0 0 99.425968 112.35179 C 98.730538 109.24016 97.610581 105.96995 96.337784 102.65626 A 0.79374999 0.79374999 0 0 0 95.555403 102.14777 z "
         inkscape:label="CharacterFlingTrail"
         transform="translate(182.5625,115.88751)" />
      <path
         id="rect30"
         style="fill:#ffffff;fill-opacity:1;stroke:none;stroke-width:0.631411;stroke-linecap:round;stroke-linejoin:round;stroke-dasharray:none;stroke-opacity:1;paint-order:markers stroke fill"
         inkscape:label="Character1"
         d="m 195.4022,132.97506 c -0.084,-0.003 -0.16964,0.003 -0.25589,0.0168 l -3.73666,0.62401 c -0.69004,0.11523 -1.15284,0.76363 -1.03761,1.45366 l 0.62402,3.73666 c 0.0151,0.0906 0.0445,0.17415 0.0785,0.25512 l 0.07,0.0658 c 0.0588,-0.0984 0.12595,-0.19304 0.20795,-0.27887 0.3019,-0.31602 0.70695,-0.47851 1.11575,-0.48758 0.14236,-0.003 0.28498,0.0135 0.42407,0.0475 -0.0138,-0.0198 -0.0293,-0.0395 -0.0419,-0.0593 -0.22975,-0.3628 -0.28966,-0.73531 -0.28966,-0.73531 a 0.15786765,0.15786765 0 0 1 0.1372,-0.18205 l 2.92813,-0.3527 a 0.15786765,0.15786765 0 0 1 0.0324,-4.6e-4 0.15786765,0.15786765 0 0 1 0.14198,0.18251 c 0,0 -0.0644,0.40692 -0.29397,0.82872 -0.22961,0.42181 -0.64576,0.8798 -1.32309,0.93448 -0.12493,0.0101 -0.2388,0.001 -0.34731,-0.0146 l 0.54416,0.51209 1.80621,-0.30168 c 0.69004,-0.11523 1.15284,-0.76362 1.0376,-1.45365 l -0.62401,-3.73666 c -0.10083,-0.60379 -0.60983,-1.0336 -1.19776,-1.05441 z m -0.73053,1.91272 a 0.90260561,0.46090501 80.919491 0 1 0.59765,0.81855 0.90260561,0.46090501 80.919491 0 1 -0.31277,0.96392 0.90260561,0.46090501 80.919491 0 1 -0.5975,-0.81839 0.90260561,0.46090501 80.919491 0 1 0.31263,-0.96407 z m -2.35807,0.25497 a 0.23677852,0.23677852 0 0 1 0.0529,0.003 c 0.37748,0.0658 1.23214,0.0786 1.23214,0.0786 a 0.23677852,0.23677852 0 0 1 0.23477,0.23924 0.23677852,0.23677852 0 0 1 -0.23924,0.23462 c 0,0 -0.0654,-3.4e-4 -0.16525,-0.003 a 0.7549629,0.45265148 80.919491 0 1 0.13134,0.3843 0.7549629,0.45265148 80.919491 0 1 -0.32789,0.81686 0.7549629,0.45265148 80.919491 0 1 -0.56604,-0.67396 0.7549629,0.45265148 80.919491 0 1 0.0523,-0.55988 c -0.1549,-0.0122 -0.30706,-0.0286 -0.43379,-0.0507 a 0.23677852,0.23677852 0 0 1 -0.19254,-0.27423 0.23677852,0.23677852 0 0 1 0.22137,-0.19578 z m -4.90051,2.28069 c -0.60495,0.0129 -1.20379,0.25591 -1.65545,0.72868 -0.90333,0.94554 -0.87603,2.45174 0.0765,3.34774 l 9.23143,8.68387 c 0.93732,0.88173 2.39577,0.86764 3.30288,-0.034 l -0.28565,-0.27146 a 1.8942281,1.8942281 0 0 1 -1.54723,0.54955 1.8942281,1.8942281 0 0 1 -1.66547,-2.09817 1.8942281,1.8942281 0 0 1 1.8281,-1.67718 1.8942281,1.8942281 0 0 1 0.27008,0.0117 1.8942281,1.8942281 0 0 1 1.64296,1.53891 l 0.45398,0.43148 c 0.0482,-0.67921 -0.19466,-1.37275 -0.72838,-1.87481 l -9.23143,-8.68407 c -0.47625,-0.44799 -1.08735,-0.66514 -1.69228,-0.65222 z m 12.06306,0.55202 c -0.40493,0.01 -0.79709,0.2148 -1.03267,0.58316 l -1.91088,2.98809 0.83459,0.78526 c 0.64095,0.60294 0.65946,1.62815 0.0556,2.26019 -0.076,0.0796 -0.15879,0.14924 -0.24633,0.20933 l 1.59301,1.49853 c 0.15151,0.14252 0.28445,0.29739 0.39895,0.46168 l 3.51283,-5.49292 c 0.37692,-0.58938 0.20583,-1.36732 -0.38353,-1.74424 l -2.11004,-1.34945 c -0.22102,-0.14134 -0.46862,-0.20556 -0.71157,-0.19963 z m -6.99253,1.01186 c -0.24648,0.005 -0.49052,0.10425 -0.67456,0.2969 -0.083,0.0868 -0.14392,0.18629 -0.18838,0.29089 l 4.14254,3.89697 a 0.63140938,0.63140938 0 0 1 5e-5,-0.004 0.63140938,0.63140938 0 0 1 0.69939,-0.5551 0.63140938,0.63140938 0 0 1 0.55511,0.69938 0.63140938,0.63140938 0 0 1 -0.52058,0.55018 l 0.19916,0.18729 c 0.0976,-0.0483 0.1899,-0.11078 0.26962,-0.19423 0.36809,-0.3853 0.35697,-0.999 -0.0311,-1.3641 l -3.76178,-3.53858 c -0.19407,-0.18254 -0.44303,-0.27101 -0.68953,-0.26575 z m 4.8179,0.47787 -2.5318,0.42269 1.41188,1.32849 z m -11.20367,3.14935 -0.32803,0.45798 c -0.40739,0.56874 -0.2774,1.35458 0.29134,1.76197 l 5.00472,3.58482 c 0.3971,0.28442 0.89789,0.30158 1.30398,0.0957 z m 14.6294,2.58883 -1.2955,2.02572 c 0.17468,0.38564 0.26333,0.80154 0.26576,1.21919 0.34817,-0.25776 0.76958,-0.3863 1.18728,-0.37289 0.11001,0.003 0.22008,0.0172 0.32881,0.0403 z m -4.82606,0.68197 a 0.31570517,0.31570517 0 0 1 0.31216,0.22337 0.31570517,0.31570517 0 0 1 -0.21011,0.39402 c -0.60144,0.18288 -1.2378,0.76007 -1.39092,1.37596 a 0.31570517,0.31570517 0 0 1 -0.38245,0.22984 0.31570517,0.31570517 0 0 1 -0.23046,-0.38245 c 0.22294,-0.89674 1.00385,-1.57913 1.82054,-1.82748 a 0.31570517,0.31570517 0 0 1 0.0812,-0.0133 z m 4.9631,2.8213 c -0.3633,-0.0116 -0.72861,0.1336 -0.98858,0.42901 l -0.12903,0.1466 5.98822,5.69147 0.37212,-0.43116 c 0.1502,-0.17409 0.36282,-0.26109 0.57515,-0.25636 0.16514,0.004 0.33013,0.063 0.46554,0.17974 l 0.40434,0.3487 c 0.30951,0.26701 0.34363,0.73119 0.0766,1.04068 l -0.43533,0.50454 0.29443,0.27994 0.39941,-0.45382 c 0.46219,-0.52518 0.41158,-1.31998 -0.11361,-1.78216 l -6.11554,-5.38193 c -0.22977,-0.20221 -0.51117,-0.30617 -0.79374,-0.31525 z m -8.13232,0.14907 c -0.5317,0.33567 -1.22386,0.36751 -1.78957,0.0458 l 0.38154,2.28454 c 0.11523,0.69004 0.76346,1.15268 1.4535,1.03745 l 4.46781,-0.7461 c 0.006,-0.0232 0.015,-0.0456 0.022,-0.0686 -0.91889,0.17272 -1.90664,-0.0804 -2.63432,-0.7649 z m -1.93308,2.79263 -2.13933,6.39102 c -0.22207,0.6634 0.13324,1.37617 0.79666,1.59825 l 2.36193,0.79065 c 0.66342,0.22209 1.37633,-0.1331 1.59841,-0.7965 l 2.34635,-7.00933 c 0.0296,-0.0885 0.0483,-0.17775 0.058,-0.26668 l -2.93939,0.49083 c -0.89955,0.15021 -1.76836,-0.3745 -2.0826,-1.19824 z m 10.92696,4.27589 c -6.5e-4,0.0166 -0.001,0.033 -0.003,0.0495 l 0.23971,0.21104 z" />
      <path
         style="color:#000000;fill:#ffffff;stroke-width:0.298303;stroke-linecap:round;stroke-linejoin:round;-inkscape-stroke:none;paint-order:markers stroke fill"
         d="m 197.8523,148.26176 c -0.0837,0.002 -0.16316,0.0373 -0.2209,0.0979 -0.12031,0.12614 -0.11559,0.32592 0.0105,0.44627 l 21.67479,20.60143 c 0.12626,0.12018 0.32605,0.11529 0.44627,-0.0109 0.12024,-0.12632 0.11527,-0.32623 -0.0111,-0.44642 l -21.67418,-20.60081 c -0.0606,-0.0579 -0.14162,-0.0893 -0.22537,-0.0874 z m -0.0994,3.50605 c -0.0711,2e-4 -0.14253,0.0255 -0.20148,0.0771 -0.13467,0.11759 -0.15333,0.3278 -0.0416,0.46955 l 3.18321,3.77921 c 0.11178,0.14197 0.31184,0.16161 0.44659,0.0438 0.13466,-0.11759 0.15317,-0.32781 0.0415,-0.46955 l -3.18306,-3.77936 c -0.0629,-0.0799 -0.1537,-0.12097 -0.2451,-0.1207 z m 4.93423,5.73756 c -0.0834,-0.008 -0.1664,0.0181 -0.23077,0.0717 -0.13415,0.1117 -0.15217,0.31108 -0.0402,0.44503 l 15.39877,17.07473 c 0.11167,0.13384 0.31069,0.15185 0.44457,0.0402 0.1338,-0.11172 0.15175,-0.31073 0.0401,-0.44457 l -15.39862,-17.07473 c -0.0536,-0.0643 -0.13045,-0.10474 -0.21381,-0.11237 z m 4.34711,1.0151 c -0.0496,0.006 -0.0959,0.0282 -0.13227,0.0624 -0.095,0.0896 -0.0994,0.23921 -0.01,0.33436 l 2.26512,2.40663 c 0.0896,0.095 0.23921,0.0994 0.33436,0.01 0.0955,-0.0897 0.1,-0.23989 0.01,-0.33513 l -2.26512,-2.40586 c -0.0342,-0.0364 -0.0791,-0.061 -0.1281,-0.0703 -0.0244,-0.005 -0.0494,-0.005 -0.074,-0.002 z m 5.07023,7.38145 c -0.0834,-0.005 -0.16566,0.0223 -0.2286,0.0774 -0.13106,0.11488 -0.14424,0.31422 -0.0294,0.44535 l 3.89344,4.23966 c 0.11488,0.13105 0.31422,0.14423 0.44535,0.0294 0.1315,-0.11489 0.14477,-0.3147 0.0296,-0.44596 l -3.89343,-4.23905 c -0.0553,-0.063 -0.13328,-0.1014 -0.21689,-0.10682 z"
         id="path110"
         inkscape:label="RocketTrail" />
      <path
         id="path88"
         style="color:#000000;fill:#ffffff;stroke-width:0.439936;stroke-linecap:round;stroke-linejoin:round;-inkscape-stroke:none;paint-order:markers stroke fill"
         d="m 203.65749,202.94626 a 0.93119725,0.93119725 0 0 0 -0.96075,0.90141 l -0.22598,7.17473 a 0.93119725,0.93119725 0 0 0 0.90142,0.96053 0.93119725,0.93119725 0 0 0 0.95984,-0.90119 l 0.22666,-7.17564 a 0.93119725,0.93119725 0 0 0 -0.90119,-0.95984 z m -12.81966,4.49367 a 0.931198,0.931198 0 0 0 -0.46172,0.13778 0.931198,0.931198 0 0 0 -0.3051,1.28108 l 3.62522,5.89115 a 0.931198,0.931198 0 0 0 1.28107,0.30487 0.931198,0.931198 0 0 0 0.3051,-1.28108 l -3.62522,-5.89094 a 0.931198,0.931198 0 0 0 -0.81935,-0.44286 z m 25.31172,2.26684 a 0.931198,0.931198 0 0 0 -0.67475,0.2303 l -4.38045,3.85211 a 0.931198,0.931198 0 0 0 -0.0844,1.31381 0.931198,0.931198 0 0 0 1.31382,0.085 l 4.38045,-3.8521 a 0.931198,0.931198 0 0 0 0.085,-1.3145 0.931198,0.931198 0 0 0 -0.63975,-0.31464 z m -17.43632,7.91154 c -2.06337,-0.0254 -3.74508,1.61527 -3.77049,3.67864 l -0.10889,8.8457 c -0.0254,2.06338 1.61527,3.74486 3.67864,3.77026 l 8.8457,0.1089 c 2.06336,0.0254 3.74509,-1.61527 3.77048,-3.67865 l 0.1089,-8.84569 c 0.0254,-2.06337 -1.61527,-3.74486 -3.67864,-3.77026 z m 8.00294,3.68774 c 0.44238,2e-4 0.80095,0.93272 0.80093,2.08291 -3e-5,1.1501 -0.35859,2.08248 -0.80093,2.0827 -0.44244,9e-5 -0.80114,-0.93237 -0.80116,-2.08269 -2e-5,-1.15043 0.35869,-2.08304 0.80116,-2.08292 z m 2.61695,0.005 c 0.44243,-1e-4 0.80113,0.93236 0.80115,2.08269 1e-5,1.15042 -0.35868,2.08303 -0.80115,2.08292 -0.44248,1e-4 -0.80119,-0.9325 -0.80116,-2.08292 3e-5,-1.15034 0.35872,-2.0828 0.80116,-2.08269 z m 10.51008,1.64755 c -1.76918,0.0243 -3.43671,1.11392 -4.14606,2.89931 l -4.4e-4,-2.2e-4 -4.02262,9.8892 2.3e-4,2.3e-4 c -0.94547,2.38043 0.17049,5.09583 2.49259,6.06529 2.32211,0.96943 4.97129,-0.174 5.91729,-2.5542 l 4.4e-4,-1e-5 4.02262,-9.8892 h -4.4e-4 c 0.9458,-2.38052 -0.17008,-5.09645 -2.49237,-6.06597 -0.58058,-0.24238 -1.18151,-0.35252 -1.77123,-0.34443 z m -11.8987,3.31899 c 1.23892,-1e-4 2.24329,1.00427 2.2432,2.2432 -3e-5,1.23883 -1.00436,2.24306 -2.2432,2.24297 -1.23874,-3e-5 -2.24294,-1.00423 -2.24297,-2.24297 -9e-5,-1.23884 1.00414,-2.24317 2.24297,-2.2432 z m 8.02136,6.82212 c 1.41389,8.8e-4 2.89113,0.62722 3.7939,2.0088 a 0.69839852,0.69839852 0 0 1 -0.20279,0.96666 0.69839852,0.69839852 0 0 1 -0.96666,-0.20188 c -0.93617,-1.43271 -2.93949,-1.62992 -4.05058,-1.04328 a 0.69839852,0.69839852 0 0 1 -0.94324,-0.29122 0.69839852,0.69839852 0 0 1 0.29122,-0.94347 c 0.44652,-0.23576 0.95119,-0.3911 1.47796,-0.45788 0.19753,-0.0251 0.3982,-0.0378 0.60018,-0.0377 z m -5.1175,0.9703 c -0.37438,0.34222 -0.7983,0.62871 -1.26016,0.84912 l 0.88436,0.0748 z m 12.58482,0.66339 -2.05451,5.0511 a 1.3969367,1.3969367 0 0 1 -0.004,0.004 c -0.96792,2.41582 -3.35094,3.86833 -5.80066,3.75049 l -0.39626,4.68008 c 0.6601,0.5322 1.50465,0.84361 2.42257,0.82299 l 3.31694,-0.0746 c 2.063,-0.0463 3.68656,-1.74453 3.64022,-3.80754 l -0.18029,-8.03022 c -0.0208,-0.92461 -0.37515,-1.75935 -0.94369,-2.39665 z m -30.49379,0.19665 c -1.89212,0.0305 -3.4804,1.48271 -3.64363,3.41037 l -2.06086,24.33551 c -0.17411,2.05617 1.34126,3.85167 3.39742,4.02579 l 17.71276,1.50001 c 2.05616,0.17412 3.85169,-1.34102 4.0258,-3.39719 l 1.82079,-21.5019 c -0.18886,-0.0569 -0.37671,-0.12379 -0.56267,-0.20142 -2.66479,-1.11253 -4.09993,-3.97922 -3.57953,-6.74164 l -16.72791,-1.41635 c -0.1285,-0.0109 -0.25602,-0.0152 -0.38217,-0.0132 z m -5.02292,3.19917 -1.82579,0.58928 c -1.96377,0.6338 -3.03432,2.7252 -2.40052,4.68895 l 0.95962,2.97342 c 0.37876,1.17353 1.27947,2.02412 2.36096,2.38665 l 0.893,-10.54532 c 0.003,-0.0315 0.01,-0.0616 0.0127,-0.093 z"
         inkscape:label="Character2" />
      <path
         id="rect37"
         style="opacity:1;fill:#ffffff;fill-opacity:1;stroke:none;stroke-width:1.03715;stroke-linecap:round;stroke-linejoin:round;stroke-dasharray:none;stroke-opacity:1;paint-order:markers stroke fill"
         d="m 310.35982,121.20379 a 0.38892967,0.38892967 0 0 0 -0.0986,0.0241 0.38892967,0.38892967 0 0 0 -0.22383,0.49477 l -4.88745,1.87527 -0.0959,-0.24949 -0.69886,0.26823 0.7419,2.05538 c 0.22702,0.62878 0.0964,1.30381 -0.28376,1.80201 l 1.58982,-0.6099 -0.11159,-0.29102 0.94819,-0.36378 0.16324,0.42573 c 0.23808,-0.0245 0.4751,-0.004 0.70037,0.0588 l 2.31366,-0.88759 a 0.17287438,0.17287438 0 0 0 0.0994,-0.22349 l -0.21084,-0.54964 0.88302,-0.33879 0.14163,0.36563 a 0.38892967,0.38892967 0 0 0 0.50338,0.22249 0.38892967,0.38892967 0 0 0 0.22165,-0.50321 l -1.29087,-3.32954 a 0.38892967,0.38892967 0 0 0 -0.40462,-0.24595 z m -8.08059,1.0493 c -0.034,0.002 -0.0682,0.004 -0.1023,0.008 h -1.7e-4 c -0.10239,0.0124 -0.20488,0.0367 -0.30621,0.0733 l -2.68267,0.96844 c -0.72058,0.26016 -1.09119,1.0497 -0.83104,1.77028 l 0.25355,0.70274 0.20595,-0.0761 -0.0307,-0.0934 a 0.1728571,0.1728571 0 0 1 0.11057,-0.21793 h 1.7e-4 a 0.1728571,0.1728571 0 0 1 0.0331,-0.007 0.1728571,0.1728571 0 0 1 0.18485,0.11782 l 0.0819,0.25153 a 0.17287438,0.17287438 0 0 1 -0.10449,0.21556 l -0.36361,0.13522 0.37323,1.0341 c 1.19699,-0.5111 1.55926,-1.26756 1.55926,-1.26756 a 0.34571577,0.34571577 0 0 1 0.19987,-0.17354 0.34571577,0.34571577 0 0 1 0.0885,-0.0169 0.34571577,0.34571577 0 0 1 0.17522,0.036 0.34571577,0.34571577 0 0 1 0.15463,0.46405 c 0,0 -0.52025,1.00676 -1.91865,1.59944 a 0.34571577,0.34571577 0 0 1 -0.0235,0.006 c 0.27005,0.70258 1.04773,1.06121 1.75914,0.80437 l 2.68266,-0.96844 c 0.72058,-0.26016 1.09119,-1.0497 0.83104,-1.77028 l -0.96861,-2.68267 c -0.21138,-0.58546 -0.77221,-0.93993 -1.36159,-0.91273 z m 8.00716,0.11462 0.65209,1.68182 -4.85064,1.86142 -0.6462,-1.68401 z m -0.29254,0.44295 a 0.25928644,0.25928644 0 0 0 -0.0793,0.016 l -3.88187,1.44701 a 0.25928644,0.25928644 0 0 0 -0.15227,0.33356 0.25928644,0.25928644 0 0 0 0.33306,0.15243 l 3.88187,-1.447 a 0.25928644,0.25928644 0 0 0 0.15226,-0.33373 0.25928644,0.25928644 0 0 0 -0.25371,-0.1683 z m 0.29152,0.69767 a 0.25928644,0.25928644 0 0 0 -0.0797,0.0162 l -3.88186,1.44684 a 0.25928644,0.25928644 0 0 0 -0.15227,0.3339 0.25928644,0.25928644 0 0 0 0.33373,0.15226 l 3.88187,-1.44751 a 0.25928644,0.25928644 0 0 0 0.15227,-0.33323 0.25928644,0.25928644 0 0 0 -0.25406,-0.16847 z m -10.467,0.69937 a 0.1728571,0.1728571 0 0 1 0.0338,8.5e-4 0.1728571,0.1728571 0 0 1 0.11547,0.0647 0.1728571,0.1728571 0 0 1 -0.0299,0.24274 l -0.23009,0.17995 a 0.6914305,0.34571525 70.607401 0 1 0.34251,0.49443 0.6914305,0.34571525 70.607401 0 1 -0.0964,0.76689 0.6914305,0.34571525 70.607401 0 1 -0.55571,-0.53731 0.6914305,0.34571525 70.607401 0 1 -0.0719,-0.42573 l -0.0495,0.0387 a 0.1728571,0.1728571 0 0 1 -0.2424,-0.0299 0.1728571,0.1728571 0 0 1 0.0299,-0.24274 l 0.66053,-0.51655 a 0.1728571,0.1728571 0 0 1 0.0937,-0.036 z m 1.06686,0.92371 c 0.16506,-0.0155 0.31291,0.008 0.44041,0.0621 0.18547,0.079 0.32066,0.21419 0.43417,0.35145 a 0.1728571,0.1728571 0 0 1 -0.0233,0.24308 0.1728571,0.1728571 0 0 1 -0.24274,-0.0228 c -0.0975,-0.11784 -0.19395,-0.20677 -0.30368,-0.25354 -0.10974,-0.0468 -0.24012,-0.0613 -0.44363,-0.002 a 0.1728571,0.1728571 0 0 1 -0.21404,-0.11817 0.1728571,0.1728571 0 0 1 0.11732,-0.21404 c 0.0818,-0.0237 0.16045,-0.0389 0.23548,-0.0459 z m 9.09747,0.0257 0.14906,0.38825 -0.24409,0.0937 -0.14349,-0.39045 z m -0.56094,0.21522 0.14332,0.39062 -0.25153,0.0964 -0.14331,-0.39045 z m -0.57428,0.2203 0.14349,0.39061 -0.22907,0.0878 -0.14315,-0.39045 z m -0.55166,0.21168 0.14349,0.39062 -0.18518,0.0711 -0.14349,-0.39061 z m -0.50777,0.1948 0.14349,0.39062 -0.22063,0.0847 -0.14906,-0.38842 z m -9.64744,0.002 -2.02939,0.77871 0.2208,0.57529 a 0.6914991,0.6914991 0 0 1 -0.39788,0.89349 l -3.02062,1.15919 0.008,0.66712 a 0.34571577,0.34571577 0 0 1 -0.34115,0.34994 0.34571577,0.34571577 0 0 1 -0.34977,-0.34116 l -0.006,-0.42657 a 0.6914991,0.6914991 0 0 1 -0.7912,-0.42235 l -0.22079,-0.57546 -2.16714,0.83153 1.34893,3.51556 9.99722,-3.83612 c -0.67408,-0.0864 -1.28183,-0.53043 -1.53985,-1.20173 z m -2.96458,0.27144 -3.60722,1.38421 0.51064,1.33054 3.60722,-1.38422 z m 12.33923,0.86969 c -0.13586,0.009 -0.27301,0.0379 -0.40716,0.0893 l -2.07193,0.79322 c 0.45166,0.24215 0.80704,0.66166 0.94549,1.19262 l 0.85044,3.26167 1.99293,-0.76283 c 0.71546,-0.27392 1.07102,-1.07052 0.7971,-1.78597 l -0.72806,-1.9016 c -0.22255,-0.5813 -0.79006,-0.92489 -1.37881,-0.88641 z m -3.44517,1.17321 c -0.0919,0.005 -0.18468,0.0194 -0.27734,0.0436 l -1.97048,0.51351 c -0.54112,0.14109 -0.92094,0.58058 -1.01216,1.09572 0.27702,0.20741 0.5017,0.49031 0.6337,0.83508 l 0.72823,1.90194 c 0.24823,0.64838 0.11154,1.35354 -0.29339,1.86396 l 1.01959,3.91023 c 0.19329,0.74131 0.94573,1.1825 1.68705,0.98921 l 1.97014,-0.51385 c 0.74132,-0.19329 1.18266,-0.94557 0.98937,-1.68688 l -2.065,-7.91989 c -0.16913,-0.64865 -0.76642,-1.06749 -1.40971,-1.03258 z m -4.4894,1.78715 c -0.13586,0.009 -0.27284,0.0379 -0.40699,0.0893 l -5.2465,2.00879 c -0.71546,0.27392 -1.07086,1.07051 -0.79693,1.78597 l 0.72806,1.90144 c 0.27391,0.71545 1.07051,1.07101 1.78597,0.7971 l 5.24633,-2.00863 c 0.71545,-0.27392 1.07085,-1.07051 0.79693,-1.78597 l -0.72806,-1.9016 c -0.22255,-0.58131 -0.79005,-0.92489 -1.37881,-0.8864 z m 0.19717,0.42927 c 0.27612,0.003 0.53574,0.1683 0.6472,0.44076 l 0.89974,2.19937 c 0.14861,0.36328 -0.0241,0.77527 -0.38741,0.92388 l -1.14417,0.4681 c -0.36327,0.14861 -0.77527,-0.0241 -0.92388,-0.38741 l -0.89973,-2.19938 c -0.14862,-0.36327 0.0241,-0.77543 0.3874,-0.92404 l 1.14417,-0.4681 c 0.0908,-0.0372 0.18464,-0.0542 0.27668,-0.0532 z m 5.2708,9.38935 c -0.0479,-4.3e-4 -0.0953,0.002 -0.14196,0.006 -0.6996,0.0644 -1.24675,0.6466 -1.25305,1.36479 l -0.0719,8.18424 c -0.007,0.76607 0.60446,1.38811 1.37054,1.39484 l 2.03631,0.0179 c 0.76608,0.007 1.38811,-0.60446 1.39484,-1.37053 l 0.0721,-8.18424 c 0.007,-0.76607 -0.60463,-1.38828 -1.3707,-1.39501 z m -1.42168,0.11411 c -0.14144,0.067 -0.27448,0.15777 -0.39146,0.27549 l -5.76913,5.80559 c -0.54,0.54342 -0.53717,1.41562 0.006,1.95562 l 1.44431,1.43536 c 0.54343,0.54 1.41562,0.53718 1.95562,-0.006 l 2.21001,-2.22402 0.0525,-5.98942 c 0.004,-0.48072 0.19115,-0.91887 0.4919,-1.25237 z"
         inkscape:label="Character3" />
      <path
         id="rect61"
         style="opacity:1;fill:#ffffff;fill-opacity:1;stroke:none;stroke-width:2.76572;stroke-linecap:butt;stroke-linejoin:round;stroke-dasharray:none;stroke-opacity:1;paint-order:markers stroke fill"
         inkscape:label="Laser"
         d="m 286.67552,128.69603 c -0.10485,0.01 -0.19954,0.0666 -0.25735,0.15451 -0.10524,0.15956 -0.061,0.37405 0.0987,0.47904 l 1.44746,0.95137 c 0.15962,0.1052 0.37463,0.0606 0.47956,-0.0992 0.1045,-0.15963 0.0598,-0.37335 -0.0997,-0.47801 l -1.44694,-0.95188 c -0.0654,-0.0432 -0.14363,-0.0629 -0.22169,-0.0558 z m 2.1146,1.95182 -43.9415,16.46049 h 5.87044 l 38.76766,-14.54433 z m 0.53898,2.47013 c -0.13221,0.0135 -0.24484,0.10131 -0.2899,0.22634 l -0.5948,1.6459 c -0.065,0.17956 0.0277,0.37739 0.20723,0.44235 0.1797,0.065 0.3781,-0.028 0.44286,-0.20774 l 0.5948,-1.64538 c 0.065,-0.17951 -0.0277,-0.37783 -0.20722,-0.44286 -0.0489,-0.0176 -0.10129,-0.0239 -0.15297,-0.0186 z m -71.31244,24.04143 -6.9983,2.52298 1.61489,1.61489 5.38341,-1.92044 z m -12.94148,4.90907 -36.23794,13.51357 6.19032,-0.077 31.49095,-11.75245 z"
         sodipodi:nodetypes="ccccccccccccccccscccccccccccccc" />
    </g>
  </g>
</svg>
