<?xml version="1.0" encoding="UTF-8" standalone="no"?>
<!-- Created with Inkscape (http://www.inkscape.org/) -->

<svg
   width="512"
   height="512"
   viewBox="0 0 512 512"
   version="1.1"
   id="svg1"
   inkscape:version="1.3.2 (091e20e, 2023-11-25, custom)"
   sodipodi:docname="project-icon-website.svg"
   inkscape:export-filename="og-image.webp"
   inkscape:export-xdpi="96"
   inkscape:export-ydpi="96"
   xmlns:inkscape="http://www.inkscape.org/namespaces/inkscape"
   xmlns:sodipodi="http://sodipodi.sourceforge.net/DTD/sodipodi-0.dtd"
   xmlns:xlink="http://www.w3.org/1999/xlink"
   xmlns="http://www.w3.org/2000/svg"
   xmlns:svg="http://www.w3.org/2000/svg">
  <sodipodi:namedview
     id="namedview1"
     pagecolor="#505050"
     bordercolor="#eeeeee"
     borderopacity="1"
     inkscape:showpageshadow="0"
     inkscape:pageopacity="0"
     inkscape:pagecheckerboard="0"
     inkscape:deskcolor="#505050"
     inkscape:document-units="px"
     showgrid="true"
     inkscape:zoom="0.83203127"
     inkscape:cx="130.40375"
     inkscape:cy="433.87792"
     inkscape:window-width="1920"
     inkscape:window-height="1108"
     inkscape:window-x="-9"
     inkscape:window-y="54"
     inkscape:window-maximized="1"
     inkscape:current-layer="g14">
    <inkscape:grid
       id="grid1"
       units="px"
       originx="0"
       originy="0"
       spacingx="8"
       spacingy="8"
       empcolor="#ffffff"
       empopacity="0.23921569"
       color="#ffffff"
       opacity="0.078431373"
       empspacing="8"
       dotted="false"
       gridanglex="30"
       gridanglez="30"
       visible="true" />
  </sodipodi:namedview>
  <defs
     id="defs1" />
  <g
     inkscape:label="Layer 1"
     inkscape:groupmode="layer"
     id="layer1">
    <rect
       style="fill:#303030;fill-opacity:1;stroke:none;stroke-width:5.10883;stroke-linecap:round;stroke-linejoin:round;stroke-dasharray:none;stroke-opacity:1"
       id="rect2"
       width="512"
       height="512"
       x="0"
       y="0"
       inkscape:label="bg" />
    <g
       id="g3"
       inkscape:label="logo"
       transform="matrix(6.3483656,0,0,6.3483656,40.102654,124.59207)">
      <g
         id="g15"
         inkscape:label="d0"
         transform="matrix(0.67590094,0,0,0.67590094,7.1531049,3.4976583)">
        <path
           id="rect1"
           style="fill:#ffbb33;fill-opacity:1;stroke:#b77a00;stroke-width:1.5;stroke-linecap:round;stroke-linejoin:round;stroke-dasharray:none;stroke-opacity:1;paint-order:normal"
           d="m 2.7324938,1.4880319 v 9.0000001 10 9 h 9.0000002 c 4.970563,0 9,-4.029437 9,-9 v -10 c 0,-4.9705628 -4.029437,-9.0000001 -9,-9.0000001 z"
           sodipodi:nodetypes="ccccsccsc"
           inkscape:label="d-base" />
        <rect
           style="fill:#b77a00;fill-opacity:1;stroke:none;stroke-width:1.5;stroke-linecap:round;stroke-linejoin:round;stroke-dasharray:none;stroke-opacity:1;paint-order:normal"
           id="rect8"
           width="4"
           height="6"
           x="9.7324934"
           y="12.488032"
           ry="1"
           inkscape:label="d-center" />
      </g>
      <g
         id="g2"
         inkscape:label="o-pineapple"
         transform="matrix(0.81932794,0.1408473,-0.1408473,0.81932794,19.016115,-2.0426956)">
        <path
           style="fill:#ffbb33;fill-opacity:1;stroke:#b77a00;stroke-width:1.5;stroke-linecap:round;stroke-dasharray:none;stroke-opacity:1"
           d="m 16,10.22066 c -6,0 -7,6.441576 -7,10.441577 0,4 3.456618,7.117104 7,7.117104 3.543382,0 7,-3.117104 7,-7.117104 C 23,16.662236 22,10.22066 16,10.22066 Z"
           id="path1"
           sodipodi:nodetypes="zzzzz"
           inkscape:label="head" />
        <path
           style="fill:#69c52a;fill-opacity:1;stroke:#389d00;stroke-width:1.5;stroke-linecap:round;stroke-dasharray:none;stroke-opacity:1"
           d="m 14,12 c 1.333333,0.623415 2.666667,0.603436 4,0 L 23,5 19,6 16,3 13,6 9,5 Z"
           id="path2"
           sodipodi:nodetypes="cccccccc"
           inkscape:label="crown" />
        <g
           id="g4"
           inkscape:label="glasses">
          <path
             style="fill:none;fill-opacity:1;stroke:#000000;stroke-width:1;stroke-linecap:round;stroke-linejoin:round;stroke-dasharray:none;stroke-opacity:1"
             d="m 8,20 1,-3 h 1.282934 l 1,3 h 3 l 1,-3 h 1.464765 l 1,3 h 3 l 1,-3 H 23 l 1,3"
             id="path3"
             sodipodi:nodetypes="cccccccccccc"
             inkscape:label="glasses-frame" />
          <path
             style="fill:#000000;fill-opacity:1;stroke:#000000;stroke-width:1;stroke-linecap:round;stroke-linejoin:round;stroke-dasharray:none;stroke-opacity:1"
             d="m 16.747699,17 h 5 l -1,3 h -3 z"
             id="path4-5"
             inkscape:label="glasses-left" />
          <path
             style="fill:#000000;fill-opacity:1;stroke:#000000;stroke-width:1;stroke-linecap:round;stroke-linejoin:round;stroke-dasharray:none;stroke-opacity:1"
             d="m 10.282934,17 h 5 l -1,3 h -3 z"
             id="path4-5-3"
             inkscape:label="glasses-right" />
        </g>
        <path
           style="fill:none;fill-opacity:1;stroke:#ffffff;stroke-width:1.25;stroke-linecap:round;stroke-linejoin:round;stroke-dasharray:none;stroke-opacity:1"
           d="M 14,18 H 12"
           id="path4" />
        <path
           style="fill:none;fill-opacity:1;stroke:#ffffff;stroke-width:1.25;stroke-linecap:round;stroke-linejoin:round;stroke-dasharray:none;stroke-opacity:1"
           d="m 20.247699,18 h -2"
           id="path4-6" />
        <path
           style="fill:none;fill-opacity:1;stroke:#ffd966;stroke-width:2;stroke-linecap:round;stroke-linejoin:round;stroke-dasharray:none;stroke-opacity:1"
           d="m 14.488263,14.830986 h 3.023474"
           id="path5" />
        <path
           style="fill:none;fill-opacity:1;stroke:#b77a00;stroke-width:1;stroke-linecap:round;stroke-linejoin:round;stroke-dasharray:none;stroke-opacity:1"
           d="M 12,26.29108 C 12.338028,26 13.615024,24 13.615024,24"
           id="path6" />
        <path
           style="fill:none;fill-opacity:1;stroke:#b77a00;stroke-width:1;stroke-linecap:round;stroke-linejoin:round;stroke-dasharray:none;stroke-opacity:1"
           d="m 14.786044,27.216661 c 0.338028,-0.29108 1.615024,-2.29108 1.615024,-2.29108"
           id="path6-9" />
        <path
           style="fill:none;fill-opacity:1;stroke:#b77a00;stroke-width:1;stroke-linecap:round;stroke-linejoin:round;stroke-dasharray:none;stroke-opacity:1"
           d="m 17.89165,27.278165 c 0.338028,-0.29108 2.122066,-3.14554 2.122066,-3.14554"
           id="path6-9-0"
           sodipodi:nodetypes="cc" />
      </g>
      <path
         id="rect9"
         style="fill:#ffbb33;fill-opacity:1;stroke:#b77a00;stroke-width:1.01385;stroke-linecap:round;stroke-linejoin:round;stroke-dasharray:none;stroke-opacity:1;paint-order:normal"
         d="m 37.38784,4.5034204 v 6.0831076 6.759011 5.972219 0.110889 h 12.166217 v -6.083108 h -6.759009 v -0.302308 h 5.11546 v -6.154395 h -5.11546 v -0.302308 h 6.759009 V 4.5034204 h -5.920733 z"
         sodipodi:nodetypes="ccccccccccccccccc"
         inkscape:label="e" />
      <path
         id="rect9-7"
         style="fill:#ffbb33;fill-opacity:1;stroke:#b77a00;stroke-width:1.01385;stroke-linecap:round;stroke-linejoin:round;stroke-dasharray:none;stroke-opacity:1;paint-order:normal"
         d="m 52.25766,4.5034204 v 6.0831076 6.759011 5.972219 0.110889 H 64.423878 V 17.345539 H 58.34077 c -0.374449,0 -0.675902,-0.301454 -0.675902,-0.675902 V 4.5034204 Z"
         sodipodi:nodetypes="cccccccsscc"
         inkscape:label="l" />
      <g
         id="g18"
         inkscape:label="j">
        <path
           id="rect1-2-6"
           style="fill:#ffbb33;fill-opacity:1;stroke:#b77a00;stroke-width:1.01385;stroke-linecap:round;stroke-linejoin:round;stroke-dasharray:none;stroke-opacity:1;paint-order:normal"
           d="M 9.6758974,26.542031 V 37.356446 H 3.5927925 v 2.027703 c 0,3.311746 2.7896329,6.081128 6.0831049,6.083108 3.2934786,0.002 5.9405356,-2.771362 5.9405356,-6.083108 V 26.542031 Z"
           inkscape:label="j-base" />
        <path
           style="fill:none;fill-opacity:1;stroke:#b77a00;stroke-width:1.01385;stroke-linecap:round;stroke-linejoin:round;stroke-dasharray:none;stroke-opacity:1;paint-order:normal"
           d="m 9.6758974,37.356446 v 2.027703"
           id="path11-9"
           inkscape:label="j-center" />
      </g>
      <g
         id="g17"
         inkscape:label="a"
         transform="matrix(0.67590094,0,0,0.67590094,7.1531049,3.4976583)">
        <path
           id="rect1-2-0"
           style="fill:#ffbb33;fill-opacity:1;stroke:#b77a00;stroke-width:1.5;stroke-linecap:round;stroke-linejoin:round;stroke-dasharray:none;stroke-opacity:1;paint-order:normal"
           d="m 24.73249,34.094305 c -5.01878,0 -9,4.10024 -9,9 v 9 1 9 h 9 8.8125 l -0.0234,-19 c -0.006,-4.899756 -3.77032,-9 -8.7891,-9 z"
           sodipodi:nodetypes="sscccccss"
           inkscape:label="a-base" />
        <rect
           style="fill:#b77a00;fill-opacity:1;stroke:none;stroke-width:1.5;stroke-linecap:round;stroke-linejoin:round;stroke-dasharray:none;stroke-opacity:1;paint-order:normal"
           id="rect8-9-8"
           width="4"
           height="6"
           x="22.669991"
           y="41.750553"
           ry="1"
           inkscape:label="a-center" />
        <rect
           style="fill:#b77a00;fill-opacity:1;stroke:none;stroke-width:1.5;stroke-linecap:round;stroke-linejoin:round;stroke-dasharray:none;stroke-opacity:1;paint-order:normal"
           id="rect8-9-8-3"
           width="4"
           height="9.625"
           x="22.732491"
           y="53.031803"
           ry="1"
           inkscape:label="a-bottom" />
      </g>
      <g
         id="g16"
         inkscape:label="v"
         transform="matrix(0.67590094,0,0,0.67590094,7.1531049,3.4976583)">
        <path
           style="fill:#ffbb33;fill-opacity:1;stroke:#b77a00;stroke-width:1.5;stroke-linecap:round;stroke-linejoin:round;stroke-dasharray:none;stroke-opacity:1;paint-order:normal"
           d="m 39.73249,62.094305 h 9 l 4.5,-28 h -18 z"
           id="path12-1"
           sodipodi:nodetypes="ccccc"
           inkscape:label="v-base" />
        <path
           id="path14-9"
           style="color:#000000;fill:#b77a00;stroke-linecap:round;stroke-linejoin:round;-inkscape-stroke:none"
           d="m 42.73249,33.344305 a 0.750075,0.750075 0 0 0 -0.72656,0.933594 l 1.5,5.970703 a 0.750075,0.750075 0 0 0 1.45312,0 l 1.5,-5.970703 a 0.750075,0.750075 0 0 0 -0.72656,-0.933594 z"
           inkscape:label="v-top" />
      </g>
      <path
         id="rect9-7-7"
         style="fill:#ffbb33;fill-opacity:1;stroke:#b77a00;stroke-width:1.01385;stroke-linecap:round;stroke-linejoin:round;stroke-dasharray:none;stroke-opacity:1;paint-order:normal"
         d="m 44.822748,26.542031 v 18.925226 h 5.407207 V 26.542031 Z"
         sodipodi:nodetypes="ccccc"
         inkscape:label="i" />
      <use
         x="0"
         y="0"
         xlink:href="#g15"
         id="use16"
         transform="translate(43.25766,22.03861)"
         inkscape:label="d1" />
    </g>
    <g
       id="g14"
       inkscape:label="note">
      <path
         style="fill:#ffffff;fill-opacity:1;stroke:#999999;stroke-width:4;stroke-linecap:round;stroke-linejoin:round;stroke-dasharray:none;stroke-opacity:1"
         d="m 184.18779,27.568076 -5.97183,94.197184 296,10.74178 3.79343,-96.788729 z"
         id="path7"
         sodipodi:nodetypes="ccccc"
         inkscape:label="note-base" />
      <path
         d="m 238.14175,67.250419 0.0427,-2.176 q 0,-1.109334 -0.72533,-2.176001 -0.68267,-1.066666 -3.37067,-6.186666 -2.688,-5.120001 -2.688,-5.760001 0,-0.682666 0.55467,-1.194666 0.55466,-0.554667 1.06666,-0.554667 0.55467,0 1.28,0.981333 0.768,0.981334 2.944,5.162667 2.21867,4.181334 2.56,4.608 4.096,-7.253333 6.57067,-10.24 0.59733,-0.554667 0.93867,-0.554667 0.384,0 0.55466,0.08533 1.024,0.426666 1.024,1.152 0,0.682666 -0.34133,1.194666 -0.34133,0.512 -1.87733,2.688001 -2.26134,3.157333 -3.92534,6.4 -1.62133,3.2 -1.62133,3.925333 v 7.808 l 0.128,3.413334 q 0,0.938667 -0.512,1.322667 -0.512,0.341333 -1.28,0.341333 -0.72533,0 -0.98133,-0.810667 -0.256,-0.810666 -0.29867,-2.133333 -0.0427,-1.322667 -0.0427,-3.882667 z m 20.43731,-9.557334 q 3.072,0 5.03467,2.944 2.00533,2.944 2.00533,7.082667 0,4.096 -2.048,6.997334 -2.00533,2.901333 -5.376,2.901333 -3.328,0 -5.376,-2.944 -2.048,-2.986667 -2.048,-6.613334 0,-4.650666 1.87733,-7.424 2.00534,-2.944 5.93067,-2.944 z m -0.512,3.498667 q -1.792,0 -2.944,1.877333 -1.152,1.877334 -1.152,3.968 0,3.242667 1.28,4.949334 1.28,1.706666 2.90134,1.706666 2.90133,0 3.712,-2.517333 0.34133,-1.194667 0.34133,-2.986667 0,-6.997333 -4.13867,-6.997333 z m 10.06933,-1.877334 q 0.17067,-0.725333 0.72534,-1.194666 0.55466,-0.512 1.10933,-0.512 0.59733,0 0.896,0.213333 0.34133,0.213333 0.384,0.384 0.0853,0.170667 0.17067,0.597333 -0.256,3.328 -0.256,6.016001 0,2.645333 0.64,6.101333 0.64,3.413333 1.408,3.413333 1.152,0 2.90133,-1.28 1.792,-1.28 2.56,-2.688 -0.512,-6.144 -0.512,-10.538667 0,-0.896 0.55467,-1.536 0.59733,-0.64 1.408,-0.64 1.32266,0 1.32266,1.792 0,3.029334 0.42667,9.002667 0.46933,5.973334 0.93867,7.594667 0.0853,0.341334 0.0853,0.810667 0,0.426667 -0.59733,0.810667 -0.55467,0.426666 -1.49334,0.426666 -0.896,0 -1.19466,-1.024 -0.0853,-0.853333 -0.42667,-2.56 -2.98667,3.114667 -6.016,3.114667 -1.408,0 -2.51733,-1.066667 -1.10934,-1.066666 -1.74934,-2.901333 -1.10933,-3.541334 -1.10933,-6.656 0,-3.114667 0.34133,-7.680001 z m 38.8693,-1.664 q 1.87733,0 1.87733,3.2 0,0.341334 0,0.725334 l -0.0853,2.986667 q -0.0427,1.408 -0.0427,2.773333 l 0.64,9.642667 q 0,1.066667 -2.176,1.066667 -0.128,0 -0.64,0 -0.46933,0 -0.68266,-0.384 -0.17067,-0.384 -0.0427,-0.938667 0.17067,-0.554667 -0.0853,-1.237333 -1.96267,2.090666 -5.20534,2.090666 -6.016,0 -6.016,-9.301333 0,-5.162667 1.92,-7.808001 1.96267,-2.645333 5.58934,-2.645333 1.70666,0 3.41333,0.597333 0.55467,-0.768 1.536,-0.768 z m -4.43733,3.882667 q -2.432,0 -3.62667,1.408 -1.19467,1.408 -1.19467,5.162667 0,6.314667 3.41334,6.314667 0.896,0 1.96266,-0.810667 1.10934,-0.810667 1.536,-1.834667 0.81067,-2.304 0.81067,-5.034666 0,-2.730667 -0.68267,-3.968001 -0.64,-1.237333 -2.21866,-1.237333 z m 14.76267,9.813334 0.0427,4.394667 q 0,0.768 -0.72533,1.408 -0.68267,0.64 -1.36534,0.64 -0.98133,0 -1.23733,-1.536 -0.0427,-0.341334 -0.34133,-6.229334 -0.29867,-5.930667 -1.152,-9.301334 -0.384,-1.621333 -0.384,-1.92 0,-1.408 1.70666,-1.408 0.72534,0 1.152,0.554667 0.42667,0.554667 0.512,1.152 0.128,0.554667 0.21334,1.536 0.0853,0.981333 0.128,1.237333 0.896,-2.133333 2.688,-3.2 1.792,-1.066666 3.92533,-1.066666 3.49867,0 3.49867,1.792 0,0.896 -0.64,1.450666 -0.59734,0.512 -1.408,0.512 -3.62667,0 -5.12,2.304001 -1.49334,2.304 -1.49334,7.68 z m 17.06668,-13.525334 q 2.26133,0 4.30933,1.322667 2.048,1.322666 2.048,3.285333 0,1.92 -1.664,3.754667 -1.664,1.792 -4.43733,2.176 -1.19467,0.170667 -3.584,0.170667 0.46933,3.626666 1.83466,4.778666 0.42667,0.469334 1.152,0.469334 2.64534,0 4.43734,-1.664 1.792,-1.706667 2.56,-1.706667 0.34133,0 1.024,0.64 0.68267,0.64 0.68267,1.194667 0,1.109333 -2.688,3.2 -1.19467,0.981333 -2.90134,1.664 -1.664,0.64 -3.11467,0.64 -3.712,0 -5.46133,-4.778667 -1.10933,-2.944 -1.10933,-6.485333 0,-3.541334 1.664,-6.101334 1.664,-2.56 5.248,-2.56 z m 0.21333,2.944 q -1.62133,0 -2.77333,1.834667 -0.42667,0.64 -0.81067,2.901333 5.97333,0 5.97333,-2.944 0,-1.792 -2.38933,-1.792 z m 25.00268,2.986667 0.34133,10.069333 q 0,1.877334 -0.17066,2.176001 -0.0853,0.768 -0.512,1.194666 -0.384,0.426667 -1.536,0.426667 -0.55467,0 -0.896,-0.682667 -0.34134,-0.725333 -0.384,-1.621333 -0.29867,-7.509334 -0.81067,-14.080001 -0.46933,-6.613333 -0.46933,-12.288 0,-0.896 0.59733,-1.408 0.59733,-0.512 1.408,-0.512 1.19467,0 1.408,2.048 0.256,2.048 0.29867,5.12 0.0853,3.072 0.17066,4.48 2.13334,-1.109333 4.26667,-1.109333 4.94933,0 6.272,4.352 0.768,2.474667 0.768,6.357334 0,1.28 -0.256,4.053333 -0.21333,2.730667 -0.256,3.541334 -0.0427,0.810666 -0.72533,1.28 -0.64,0.426666 -1.408,0.426666 -1.19467,0 -1.19467,-1.28 l 0.29867,-7.424 q 0,-0.938667 -0.0853,-3.114667 -0.0853,-2.176 -0.896,-3.456 -0.768,-1.28 -2.73066,-1.28 -3.49867,0 -3.49867,2.730667 z m 19.49867,-5.930667 q 2.26134,0 4.30934,1.322667 2.048,1.322666 2.048,3.285333 0,1.92 -1.664,3.754667 -1.664,1.792 -4.43734,2.176 -1.19466,0.170667 -3.584,0.170667 0.46933,3.626666 1.83467,4.778666 0.42667,0.469334 1.152,0.469334 2.64533,0 4.43733,-1.664 1.792,-1.706667 2.56,-1.706667 0.34134,0 1.024,0.64 0.68267,0.64 0.68267,1.194667 0,1.109333 -2.688,3.2 -1.19467,0.981333 -2.90133,1.664 -1.664,0.64 -3.11467,0.64 -3.712,0 -5.46134,-4.778667 -1.10933,-2.944 -1.10933,-6.485333 0,-3.541334 1.664,-6.101334 1.664,-2.56 5.248,-2.56 z m 0.21334,2.944 q -1.62134,0 -2.77334,1.834667 -0.42667,0.64 -0.81067,2.901333 5.97334,0 5.97334,-2.944 0,-1.792 -2.38933,-1.792 z m 16.12803,10.581334 0.0427,4.394667 q 0,0.768 -0.72534,1.408 -0.68266,0.64 -1.36533,0.64 -0.98133,0 -1.23733,-1.536 -0.0427,-0.341334 -0.34134,-6.229334 -0.29866,-5.930667 -1.152,-9.301334 -0.384,-1.621333 -0.384,-1.92 0,-1.408 1.70667,-1.408 0.72533,0 1.152,0.554667 0.42667,0.554667 0.512,1.152 0.128,0.554667 0.21333,1.536 0.0853,0.981333 0.128,1.237333 0.896,-2.133333 2.688,-3.2 1.792,-1.066666 3.92534,-1.066666 3.49866,0 3.49866,1.792 0,0.896 -0.64,1.450666 -0.59733,0.512 -1.408,0.512 -3.62666,0 -5.12,2.304001 -1.49333,2.304 -1.49333,7.68 z m 17.06667,-13.525334 q 2.26133,0 4.30933,1.322667 2.048,1.322666 2.048,3.285333 0,1.92 -1.664,3.754667 -1.664,1.792 -4.43733,2.176 -1.19467,0.170667 -3.584,0.170667 0.46933,3.626666 1.83466,4.778666 0.42667,0.469334 1.152,0.469334 2.64534,0 4.43734,-1.664 1.792,-1.706667 2.56,-1.706667 0.34133,0 1.024,0.64 0.68266,0.64 0.68266,1.194667 0,1.109333 -2.688,3.2 -1.19466,0.981333 -2.90133,1.664 -1.664,0.64 -3.11467,0.64 -3.712,0 -5.46133,-4.778667 -1.10933,-2.944 -1.10933,-6.485333 0,-3.541334 1.664,-6.101334 1.664,-2.56 5.248,-2.56 z m 0.21333,2.944 q -1.62133,0 -2.77333,1.834667 -0.42667,0.64 -0.81067,2.901333 5.97333,0 5.97333,-2.944 0,-1.792 -2.38933,-1.792 z m 16.00004,-12.544 -0.384,14.549333 q 0,2.346667 0.0427,3.072001 -0.17066,0.554666 -0.68266,0.981333 -0.46934,0.426667 -1.06667,0.426667 -0.59733,0 -0.98133,-0.938667 -0.64,-10.752 -0.64,-18.090667 0.384,-1.066667 1.96266,-1.066667 1.57867,0 1.74934,1.066667 z m -2.944,27.306667 q -0.64,-0.768 -0.64,-1.536 0,-0.768 0.59733,-1.408 0.59733,-0.64 1.57867,-0.64 1.024,0 1.45066,0.384 0.46934,0.384 0.46934,1.664 0,2.261334 -1.87734,2.261334 -0.93866,0 -1.57866,-0.725334 z"
         id="text7"
         style="font-size:42.6667px;font-family:'Patrick Hand';-inkscape-font-specification:'Patrick Hand';text-align:center;text-anchor:middle;stroke-width:4;stroke-linecap:round;stroke-linejoin:round"
         inkscape:label="you-are-here"
         transform="rotate(1.7694145)"
         aria-label="You are here!" />
      <path
         style="fill:none;fill-opacity:1;stroke:#000000;stroke-width:4;stroke-linecap:round;stroke-linejoin:round;stroke-dasharray:none;stroke-opacity:1"
         d="m 195.46689,39.093377 10.19827,9.773344"
         id="path8"
         inkscape:label="dash0" />
      <path
         style="fill:none;fill-opacity:1;stroke:#000000;stroke-width:4;stroke-linecap:round;stroke-linejoin:round;stroke-dasharray:none;stroke-opacity:1"
         d="m 463.59646,53.540929 -14.02262,6.798849"
         id="path9"
         inkscape:label="dash1" />
      <path
         style="fill:none;fill-opacity:1;stroke:#000000;stroke-width:4;stroke-linecap:round;stroke-linejoin:round;stroke-dasharray:none;stroke-opacity:1"
         d="m 433.8515,104.95722 11.89798,16.14726"
         id="path10"
         inkscape:label="dash2" />
      <path
         style="fill:none;fill-opacity:1;stroke:#000000;stroke-width:4;stroke-linecap:round;stroke-linejoin:round;stroke-dasharray:none;stroke-opacity:1"
         d="M 217.56314,96.033731 201.84081,112.18099"
         id="path11"
         inkscape:label="dash3" />
      <path
         style="fill:none;fill-opacity:1;stroke:#000000;stroke-width:4;stroke-linecap:round;stroke-linejoin:round;stroke-dasharray:none;stroke-opacity:1"
         d="m 259.63101,101.13287 0.84986,14.02262 -14.87248,-6.79885 14.87248,6.79885 14.02263,-6.79885"
         id="path13"
         sodipodi:nodetypes="ccccc"
         inkscape:label="arrow0" />
      <path
         style="fill:none;fill-opacity:1;stroke:#000000;stroke-width:4;stroke-linecap:round;stroke-linejoin:round;stroke-dasharray:none;stroke-opacity:1"
         d="m 319.97079,102.40765 -2.12464,16.57219 -8.92349,-7.6487 9.34842,7.6487 12.74784,-5.94899"
         id="path12"
         inkscape:label="arrow1" />
      <path
         style="fill:none;fill-opacity:1;stroke:#000000;stroke-width:4;stroke-linecap:round;stroke-linejoin:round;stroke-dasharray:none;stroke-opacity:1"
         d="m 387.95927,103.68243 -11.89798,15.72234 -9.77334,-10.19827 9.77334,10.19827 11.89798,-1.69971"
         id="path14"
         inkscape:label="arrow2" />
      <rect
         style="opacity:0.5;fill:#ffffff;fill-opacity:1;stroke:#999999;stroke-width:4;stroke-linecap:round;stroke-linejoin:round;stroke-dasharray:none;stroke-opacity:1"
         id="rect14"
         width="23.436619"
         height="34.854458"
         x="238.68704"
         y="-10.911103"
         transform="rotate(5.1910986)"
         inkscape:label="tape0" />
      <rect
         style="fill:#ffffff;fill-opacity:1;stroke:#999999;stroke-width:4;stroke-linecap:round;stroke-linejoin:round;stroke-dasharray:none;stroke-opacity:1;opacity:0.5"
         id="rect14-5"
         width="23.436619"
         height="34.854458"
         x="394.30865"
         y="22.754383"
         transform="rotate(-0.98109965)"
         inkscape:label="tape1" />
    </g>
  </g>
</svg>
