<?xml version="1.0" encoding="UTF-8" standalone="no"?>
<!-- Created with Inkscape (http://www.inkscape.org/) -->

<svg
   width="150"
   height="150"
   viewBox="0 0 150 150"
   version="1.1"
   id="svg1"
   inkscape:version="1.3.2 (091e20e, 2023-11-25, custom)"
   sodipodi:docname="grimace.svg"
   xmlns:inkscape="http://www.inkscape.org/namespaces/inkscape"
   xmlns:sodipodi="http://sodipodi.sourceforge.net/DTD/sodipodi-0.dtd"
   xmlns:xlink="http://www.w3.org/1999/xlink"
   xmlns="http://www.w3.org/2000/svg"
   xmlns:svg="http://www.w3.org/2000/svg">
  <sodipodi:namedview
     id="namedview1"
     pagecolor="#505050"
     bordercolor="#eeeeee"
     borderopacity="1"
     inkscape:showpageshadow="0"
     inkscape:pageopacity="0"
     inkscape:pagecheckerboard="0"
     inkscape:deskcolor="#505050"
     inkscape:document-units="px"
     showgrid="true"
     inkscape:zoom="3.328125"
     inkscape:cx="83.680751"
     inkscape:cy="79.624413"
     inkscape:window-width="1920"
     inkscape:window-height="1108"
     inkscape:window-x="-9"
     inkscape:window-y="54"
     inkscape:window-maximized="1"
     inkscape:current-layer="layer1">
    <inkscape:grid
       id="grid1"
       units="px"
       originx="0"
       originy="0"
       spacingx="5"
       spacingy="5"
       empcolor="#ffffff"
       empopacity="0.23921569"
       color="#ffffff"
       opacity="0.078431373"
       empspacing="5"
       dotted="false"
       gridanglex="30"
       gridanglez="30"
       visible="true" />
  </sodipodi:namedview>
  <defs
     id="defs1" />
  <g
     inkscape:label="Layer 1"
     inkscape:groupmode="layer"
     id="layer1">
    <circle
       style="fill:#ffffff;stroke:#000000;stroke-width:6.09412;stroke-linecap:round;stroke-linejoin:round;stroke-dasharray:none;paint-order:normal"
       id="path1"
       cx="63.901463"
       cy="93.09507"
       r="48.753017"
       inkscape:label="head"
       transform="rotate(-8.0012223)" />
    <path
       style="fill:#ffffff;fill-opacity:1;stroke:#000000;stroke-width:3.65647;stroke-linecap:round;stroke-linejoin:round;stroke-dasharray:none;stroke-opacity:1;paint-order:normal"
       d="M 30.80108,97.251439 C 22.83757,68.288487 25.498783,56.74448 31.640965,41.464204 42.914148,13.419235 62.331591,11.951993 58.828327,30.541411 57.831728,35.829675 52.619544,46.612677 52.619544,46.612677"
       id="path6"
       sodipodi:nodetypes="cssc"
       inkscape:label="right-stretch" />
    <use
       x="0"
       y="0"
       xlink:href="#path6"
       id="use7"
       transform="matrix(-0.96124993,0.27567837,0.27567837,0.96124993,126.57215,-16.496939)"
       inkscape:label="left-stretch" />
    <path
       id="path2"
       style="fill:#000000;fill-opacity:1;stroke:none;stroke-width:6.09412;stroke-linecap:round;stroke-linejoin:round;stroke-dasharray:none;paint-order:stroke fill markers"
       inkscape:label="face"
       d="m 48.167962,24.896368 c -0.158995,0.02323 -0.318265,0.05069 -0.478579,0.0841 -1.282472,0.267487 -2.600464,0.861031 -3.852599,1.750705 a 0.91411906,0.91411906 0 0 0 -0.215294,1.273089 0.91411906,0.91411906 0 0 0 1.273089,0.215293 c 0.869697,-0.617942 1.748019,-1.03973 2.583373,-1.288635 -0.02233,0.03671 -0.05078,0.06845 -0.07161,0.106222 -15.025132,27.253185 -17.885754,53.866817 -1.731619,77.313084 16.845644,24.44993 56.293769,18.905 65.746339,-9.241475 C 120.45302,68.214631 110.46348,43.503868 88.671377,21.508468 89.091226,21.592493 89.5344,21.715529 90,21.879423 a 0.91411906,0.91411906 0 0 0 1.164406,-0.557914 0.91411906,0.91411906 0 0 0 -0.557914,-1.164405 c -1.444105,-0.508333 -2.825146,-0.704814 -4.051026,-0.584459 -1.225877,0.120357 -2.296518,0.556291 -3.120405,1.316043 -1.647768,1.5195 -2.022579,4.14533 -0.921415,7.177811 a 0.91411906,0.91411906 0 0 0 1.170672,0.547007 0.91411906,0.91411906 0 0 0 0.547008,-1.170673 c -0.333369,-0.918058 -0.49702,-1.720066 -0.529514,-2.416031 0.119401,0.191454 0.256339,0.374916 0.422297,0.54162 C 105.16291,46.70208 113.93215,68.490502 105.64367,93.170756 97.743207,116.6956 64.773574,121.32989 50.69397,100.89463 35.922856,79.455692 38.345692,56.094082 52.743141,29.979412 c 0.05588,-0.101365 0.09076,-0.207618 0.134019,-0.312115 0.09592,0.529531 0.125318,1.140911 0.07665,1.845052 a 0.91411906,0.91411906 0 0 0 0.84854,0.974512 0.91411906,0.91411906 0 0 0 0.974511,-0.848541 C 55.002675,28.371877 53.556952,26.014782 51.331214,25.184934 50.357453,24.821876 49.280917,24.73377 48.16796,24.896373 Z m 5.723983,30.768513 c -1.666463,0.234242 -2.827509,1.77507 -2.593266,3.441534 0,0 1.496291,10.792578 5.386794,21.426195 1.945252,5.316808 4.464325,10.638052 7.968916,14.707279 0.361746,0.420025 0.741194,0.823713 1.132473,1.215859 l -0.007,9.88e-4 c -1.999756,0.281091 -3.393012,2.130087 -3.111922,4.129844 0.281092,1.99976 2.130087,3.39301 4.129842,3.11192 1.973048,-0.27936 3.358799,-2.08764 3.116153,-4.065533 2.625479,1.476623 5.620086,2.222143 8.868624,1.765523 3.248538,-0.45663 5.92163,-1.998809 8.038248,-4.141996 0.312021,1.968141 2.142537,3.324056 4.116181,3.048936 1.999755,-0.28109 3.393011,-2.130084 3.11192,-4.129843 -0.281091,-1.999754 -2.130086,-3.393011 -4.129841,-3.11192 l -0.007,9.88e-4 c 0.268011,-0.484817 0.521467,-0.977468 0.753402,-1.480943 2.246991,-4.877684 3.201498,-10.687182 3.605642,-16.334228 0.808342,-11.294099 -0.728682,-22.080952 -0.728682,-22.080952 -0.234242,-1.666463 -1.77507,-2.827509 -3.441534,-2.593266 -1.666463,0.234242 -2.82751,1.77507 -2.593267,3.441533 0,0 1.431964,10.335012 0.683088,20.798858 -0.374438,5.231925 -1.330053,10.460538 -3.061562,14.219229 -1.731507,3.75869 -3.842135,5.857531 -7.194793,6.32879 -3.352656,0.471258 -5.960102,-0.964399 -8.660703,-4.100101 C 66.572913,88.127885 64.212912,83.365324 62.410656,78.439361 58.806149,68.587437 57.33348,58.258147 57.33348,58.258147 57.099238,56.591684 55.558408,55.430639 53.891945,55.664881 Z m 26.369683,31.4243 c -0.07912,0.01202 -0.156864,0.03174 -0.232092,0.05906 -0.303818,0.110577 -0.551257,0.337323 -0.687861,0.630359 -0.530873,1.141977 -1.3652,1.675131 -2.210469,1.786716 -0.845263,0.111643 -1.729656,-0.187142 -2.43597,-1.083119 -0.416246,-0.52894 -1.182453,-0.620341 -1.711442,-0.20416 -0.529384,0.417197 -0.619646,1.184855 -0.201473,1.713467 1.190264,1.509872 2.974935,2.214081 4.666976,1.990715 1.692042,-0.223357 3.262764,-1.365375 4.104258,-3.175542 0.283301,-0.610701 0.01783,-1.335429 -0.592916,-1.618635 -0.21815,-0.101192 -0.461357,-0.135591 -0.699012,-0.09887 z" />
    <path
       style="fill:none;fill-opacity:1;stroke:#000000;stroke-width:1.82824;stroke-linecap:round;stroke-linejoin:round;stroke-dasharray:none;stroke-opacity:1;paint-order:normal"
       d="m 69.493736,122.87874 c 8.238616,0.83088 16.283369,-0.29011 24.11217,-3.5854"
       id="path7"
       sodipodi:nodetypes="cc" />
  </g>
</svg>
